<svg xmlns="http://www.w3.org/2000/svg" width="181.787" height="64.107" viewBox="0 0 181.787 64.107">
  <g id="NYFX" transform="translate(136.669 -283.653)">
    <path id="Path_10038" data-name="Path 10038" d="M-125.788,324.865V305.124L-98.829,329.5h2.648V284.152h-6.2a4.071,4.071,0,0,0-4.628,3.424,4.049,4.049,0,0,0,0,1.2V308.9l-26.834-24.755h-2.682v45.343h6.113a4.07,4.07,0,0,0,4.627-3.424A4.056,4.056,0,0,0-125.788,324.865Z" fill="#828998"/>
    <path id="Path_10039" data-name="Path 10039" d="M-54.014,284.162a6.1,6.1,0,0,0-5.644,3.278l-8.437,14.3-8.312-14.3a6.034,6.034,0,0,0-5.614-3.278h-8.733l17.29,28.1v17.228l6.206.008a4.069,4.069,0,0,0,4.628-3.419,4.083,4.083,0,0,0,0-1.209V312.332l.063-.1L-45,284.162Z" fill="#828998"/>
    <path id="Path_10040" data-name="Path 10040" d="M-5.386,288.971l0-4.819h-34.5v45.343h6.142a4.069,4.069,0,0,0,4.629-3.419,4.083,4.083,0,0,0,0-1.209V311.9h13.95a4.049,4.049,0,0,0,4.6-3.407,4.031,4.031,0,0,0,0-1.221v-4.821H-29.106V293.6h19.091a4.071,4.071,0,0,0,4.629-3.424A4.117,4.117,0,0,0-5.386,288.971Z" fill="#828998"/>
    <path id="Path_10041" data-name="Path 10041" d="M-135.9,336.489a.885.885,0,0,0-.756,1v.875h3.179v9.179h1.114a.864.864,0,0,0,.249,0,.879.879,0,0,0,.744-1V338.36h2.164a.878.878,0,0,0,.251,0,.879.879,0,0,0,.744-1v-.875l-7.44,0A.865.865,0,0,0-135.9,336.489Z" fill="#828998"/>
    <path id="Path_10042" data-name="Path 10042" d="M-118.366,342.549a4.063,4.063,0,0,0,.637-2.255c0-.111,0-.223,0-.335a3.643,3.643,0,0,0-3.807-3.471h-5.014v11.055h1.1a.866.866,0,0,0,.249,0,.884.884,0,0,0,.756-1v-2.52l2.089,0,2.121,2.892a1.452,1.452,0,0,0,1.205.619h1.763l-2.756-3.716A2.843,2.843,0,0,0-118.366,342.549Zm-3.671-.367h-2.409v-3.82h2.409a2.3,2.3,0,0,1,1.664.528,1.854,1.854,0,0,1,.542,1.389Q-119.83,342.183-122.037,342.182Z" fill="#828998"/>
    <path id="Path_10043" data-name="Path 10043" d="M-111.315,336.488l-5.651,11.055h1.483a1.208,1.208,0,0,0,1.181-.721l.485-1.02h5.207l.5,1.02a1.2,1.2,0,0,0,1.178.721h1.483l-5.65-11.055Zm-1.474,7.478,1.584-3.34,1.573,3.34Z" fill="#828998"/>
    <path id="Path_10044" data-name="Path 10044" d="M-99.789,336.488h-4.364v11.055l4.362,0a5.469,5.469,0,0,0,4.1-1.479,5.55,5.55,0,0,0,1.442-4.05,5.089,5.089,0,0,0,0-.94A5.086,5.086,0,0,0-99.789,336.488Zm0,9.152h-2.247v-7.247h2.247q3.417-.009,3.417,3.635Q-96.368,345.64-99.785,345.64Z" fill="#828998"/>
    <path id="Path_10045" data-name="Path 10045" d="M-91.167,336.488l-1.122,0v10.058a.91.91,0,0,0,0,.25.88.88,0,0,0,.994.747h1.122V337.485a.874.874,0,0,0,0-.245A.881.881,0,0,0-91.167,336.488Z" fill="#828998"/>
    <path id="Path_10046" data-name="Path 10046" d="M-79.363,336.488a.882.882,0,0,0-.752,1v5.69l-7.261-6.687h-.229v11.055h1.1a.866.866,0,0,0,.249,0,.885.885,0,0,0,.756-1v-5.573l7.278,6.57H-78V336.488h-1.113A.839.839,0,0,0-79.363,336.488Z" fill="#828998"/>
    <path id="Path_10047" data-name="Path 10047" d="M-71.225,342.408a.9.9,0,0,0,0,.249.88.88,0,0,0,.994.748h3.085a2.564,2.564,0,0,1-1,1.7,3.312,3.312,0,0,1-2.122.677A3.743,3.743,0,0,1-73,344.714a3.626,3.626,0,0,1-1.088-2.688,3.693,3.693,0,0,1,1.055-2.679l.012-.012a3.488,3.488,0,0,1,4.931-.082,1.049,1.049,0,0,0,1.384.206l1-.621a5.724,5.724,0,0,0-2.034-1.859,5.726,5.726,0,0,0-2.747-.69,5.719,5.719,0,0,0-5.7,5.741,5.473,5.473,0,0,0,1.7,4.05,5.7,5.7,0,0,0,4.165,1.677,5.374,5.374,0,0,0,3.757-1.35,5.129,5.129,0,0,0,1.66-3.49,10.838,10.838,0,0,0,0-1.419l-6.317,0Z" fill="#828998"/>
    <path id="Path_10048" data-name="Path 10048" d="M-58.8,347.543l8.12,0v-.862a.972.972,0,0,0-.293-.725,1.011,1.011,0,0,0-.727-.287h-4.994V343h3.737a.878.878,0,0,0,.24,0A.894.894,0,0,0-51.952,342v-.87h-4.74v-2.765h5.013c.668,0,1.005-.31,1.005-.937v-.937H-58.8Z" fill="#828998"/>
    <path id="Path_10049" data-name="Path 10049" d="M-40.282,336.486a1.412,1.412,0,0,0-1.222.621l-2.418,3.369-2.413-3.369a1.419,1.419,0,0,0-1.223-.621H-49.43l4.194,5.592-4.1,5.465h1.893a1.4,1.4,0,0,0,1.209-.619l2.315-3.232,2.327,3.232a1.419,1.419,0,0,0,1.213.619H-38.5l-4.107-5.465,4.18-5.592Z" fill="#828998"/>
    <path id="Path_10050" data-name="Path 10050" d="M-30.011,344.635a3.29,3.29,0,0,1-2.6,1.157,3.4,3.4,0,0,1-2.552-1.1,3.857,3.857,0,0,1,0-5.3,3.4,3.4,0,0,1,2.552-1.109,3.259,3.259,0,0,1,2.6,1.173.931.931,0,0,0,1.1.316l1.288-.527a5.283,5.283,0,0,0-1.928-2.1,5.723,5.723,0,0,0-2.9-.835,5.727,5.727,0,0,0-5.809,5.644,5.727,5.727,0,0,0,5.645,5.809,5.731,5.731,0,0,0,3.052-.794,4.941,4.941,0,0,0,1.948-2.121l-1.3-.527A.889.889,0,0,0-30.011,344.635Z" fill="#828998"/>
    <path id="Path_10051" data-name="Path 10051" d="M-18.859,345.671h-5.013V343h3.741a.92.92,0,0,0,.24,0,.889.889,0,0,0,.76-1v-.87h-4.74v-2.765h5.014c.671,0,1.005-.31,1.005-.937v-.937h-8.126v11.055l8.137,0v-.862a.959.959,0,0,0-.293-.725A1,1,0,0,0-18.859,345.671Z" fill="#828998"/>
    <path id="Path_10052" data-name="Path 10052" d="M-8.707,345.669h-4.847v-8.186a.848.848,0,0,0,0-.236.89.89,0,0,0-1-.761h-1.111v11.055h7.955v-.875a.866.866,0,0,0,0-.249A.879.879,0,0,0-8.707,345.669Z" fill="#828998"/>
    <path id="Path_10053" data-name="Path 10053" d="M.576,345.669H-4.266v-8.186a.888.888,0,0,0,0-.236.891.891,0,0,0-1-.761H-6.386v11.055H1.573v-.875a.866.866,0,0,0,0-.249A.881.881,0,0,0,.576,345.669Z" fill="#828998"/>
    <path id="Path_10054" data-name="Path 10054" d="M2.9,347.543l8.126,0v-.862a.976.976,0,0,0-.293-.725,1.011,1.011,0,0,0-.727-.287H5V343H8.743a.878.878,0,0,0,.24,0A.894.894,0,0,0,9.748,342v-.87H5.008v-2.765h5.013c.668,0,1.005-.31,1.005-.937v-.937H2.9Z" fill="#828998"/>
    <path id="Path_10055" data-name="Path 10055" d="M21.694,336.488a.866.866,0,0,0-.249,0,.881.881,0,0,0-.744,1v5.69l-7.264-6.687h-.23v11.055h1.1a.873.873,0,0,0,.25,0,.884.884,0,0,0,.755-1v-5.573l7.278,6.57h.222l0-11.055Z" fill="#828998"/>
    <path id="Path_10056" data-name="Path 10056" d="M32.943,344.635a3.29,3.29,0,0,1-2.594,1.157,3.4,3.4,0,0,1-2.553-1.1,3.857,3.857,0,0,1,0-5.3,3.4,3.4,0,0,1,2.553-1.109,3.259,3.259,0,0,1,2.594,1.173.931.931,0,0,0,1.1.316l1.288-.527a5.285,5.285,0,0,0-1.929-2.1,5.71,5.71,0,1,0-.009,9.824,4.953,4.953,0,0,0,1.948-2.121l-1.3-.527A.889.889,0,0,0,32.943,344.635Z" fill="#828998"/>
    <path id="Path_10057" data-name="Path 10057" d="M44.828,345.958a1.007,1.007,0,0,0-.727-.287H39.087V343h3.739a.878.878,0,0,0,.24,0A.894.894,0,0,0,43.831,342v-.87H39.087v-2.765H44.1c.667,0,1-.31,1-.937v-.937H36.975v11.055l8.142,0v-.862A.965.965,0,0,0,44.828,345.958Z" fill="#828998"/>
    <path id="Path_10058" data-name="Path 10058" d="M14.106,327.482,44.3,283.653l-10.647.208a5.262,5.262,0,0,0-4.772,2.507L-1.372,330.2l10.765-.208A5.208,5.208,0,0,0,14.106,327.482Z" fill="#828998"/>
    <path id="Path_10059" data-name="Path 10059" d="M7.8,300.038a2.049,2.049,0,0,0,3.5.091l8.751-12.716a2.191,2.191,0,0,0-1.577-3.755H.973a2.341,2.341,0,0,0-1.928,3.664Z" fill="#828998"/>
    <path id="Path_10060" data-name="Path 10060" d="M42.114,330.2a2.185,2.185,0,0,0,1.8-3.423L35.752,314.92a2.181,2.181,0,0,0-3.6,0L24,326.774a2.185,2.185,0,0,0,1.8,3.423Z" fill="#828998"/>
  </g>
</svg>
