<svg xmlns="http://www.w3.org/2000/svg" width="157.125" height="55.415" viewBox="0 0 157.125 55.415">
  <g id="NYFX" transform="translate(137.669 -290.21)">
    <path id="Footer_Logo" d="M464.683,1125.406a4.925,4.925,0,0,1-3.6-1.449,4.736,4.736,0,0,1-1.469-3.5,4.945,4.945,0,0,1,4.925-4.962h0a4.941,4.941,0,0,1,4.133,2.2l-.865.536a.9.9,0,0,1-1.2-.173,3.015,3.015,0,0,0-4.263.07l-.011.012a3.189,3.189,0,0,0-.912,2.315,3.13,3.13,0,0,0,.94,2.323,3.229,3.229,0,0,0,2.361.928,2.861,2.861,0,0,0,1.834-.585,2.211,2.211,0,0,0,.865-1.475H464.76a.76.76,0,0,1-.864-.64V1121a.909.909,0,0,1,0-.215V1120h5.461a9.8,9.8,0,0,1,0,1.226,4.429,4.429,0,0,1-1.435,3.015,4.639,4.639,0,0,1-3.081,1.171A1.177,1.177,0,0,0,464.683,1125.406Zm32.6,0a4.948,4.948,0,0,1-4.879-5.017v0a4.949,4.949,0,0,1,5.018-4.88h0a4.943,4.943,0,0,1,2.507.722,4.542,4.542,0,0,1,1.667,1.816l-1.112.454a.806.806,0,0,1-.956-.274,2.819,2.819,0,0,0-2.248-1.014,2.937,2.937,0,0,0-2.2.96,3.331,3.331,0,0,0,0,4.581,2.935,2.935,0,0,0,2.2.951,2.844,2.844,0,0,0,2.248-1,.77.77,0,0,1,.956-.274l1.123.454a4.253,4.253,0,0,1-1.684,1.834,4.947,4.947,0,0,1-2.516.691Zm54.415,0a4.948,4.948,0,1,1,2.638-9.173,4.558,4.558,0,0,1,1.668,1.815l-1.114.454a.8.8,0,0,1-.951-.274,2.818,2.818,0,0,0-2.242-1.013,2.941,2.941,0,0,0-2.207.959,3.334,3.334,0,0,0,0,4.582,2.937,2.937,0,0,0,2.207.95,2.841,2.841,0,0,0,2.242-1,.769.769,0,0,1,.951-.275l1.124.454a4.286,4.286,0,0,1-1.684,1.834,4.96,4.96,0,0,1-2.522.691Zm-112.486-.182h-3.77v-9.558h3.772a4.4,4.4,0,0,1,4.787,3.966,4.5,4.5,0,0,1,0,.813,4.8,4.8,0,0,1-1.246,3.5,4.727,4.727,0,0,1-3.243,1.288c-.1,0-.2,0-.3-.011Zm-1.936-1.642h1.943q2.952,0,2.952-3.123,0-3.149-2.952-3.141h-1.943Zm100.557,1.642h-.951v-9.558h.2l6.279,5.781v-4.919a.762.762,0,0,1,.642-.864.732.732,0,0,1,.215,0h.965v9.557h-.191l-6.291-5.679v4.815a.765.765,0,0,1-.651.865h0a.67.67,0,0,1-.1.007.745.745,0,0,1-.11-.009Zm-87.137,0h-.951v-9.558h.2l6.277,5.781v-4.919a.763.763,0,0,1,.646-.864h0a.711.711,0,0,1,.212,0h.961v9.557h-.188l-6.291-5.679v4.815a.766.766,0,0,1-.649.865h0a.67.67,0,0,1-.1.007.745.745,0,0,1-.11-.009Zm-33.661,0h-.951v-9.558h4.334a3.151,3.151,0,0,1,3.291,3v.29a3.517,3.517,0,0,1-.551,1.95,2.468,2.468,0,0,1-1.434,1.1l2.383,3.21h-1.525a1.249,1.249,0,0,1-1.036-.535l-1.835-2.5h-1.8v2.177a.765.765,0,0,1-.651.864h0a.842.842,0,0,1-.1.007.685.685,0,0,1-.115-.013Zm.869-4.635h2.081q1.908,0,1.908-1.642a1.6,1.6,0,0,0-.468-1.2,1.987,1.987,0,0,0-1.439-.456h-2.081Zm-6.847,4.633H410.1v-7.934h-2.749v-.756a.768.768,0,0,1,.654-.865h0a.732.732,0,0,1,.215,0h6.43v.757a.761.761,0,0,1-.643.864.813.813,0,0,1-.216,0h-1.871v7.073a.759.759,0,0,1-.635.864h-.007a.6.6,0,0,1-.108.009.691.691,0,0,1-.107-.014Zm34.641-.645a.744.744,0,0,1,0-.218v-8.693h.969a.763.763,0,0,1,.864.648h0a.784.784,0,0,1,0,.212v8.692h-.978a.712.712,0,0,1-.107.008.759.759,0,0,1-.749-.654Zm-13.679.023-.432-.882h-4.5l-.419.882a1.049,1.049,0,0,1-1.021.625h-1.282l4.884-9.558h.182l4.883,9.558h-1.347a1.042,1.042,0,0,1-.948-.627Zm-4.04-2.469h2.728l-1.359-2.885Zm129.447,3.094v-9.558h7.023v.811c0,.542-.287.81-.865.81h-4.333v2.391h4.1v.752a.774.774,0,0,1-.662.869.752.752,0,0,1-.207,0h-3.231v2.305h4.333a.876.876,0,0,1,.628.248.832.832,0,0,1,.25.628v.744Zm-29.453,0v-9.558H535v.811c0,.542-.292.81-.869.81H529.8v2.391h4.1v.752a.774.774,0,0,1-.661.869.76.76,0,0,1-.208,0h-3.235v2.305h4.321a.889.889,0,0,1,.628.248.852.852,0,0,1,.254.628v.744Zm-24.959,0v-9.558h7.024v.811c0,.542-.29.81-.869.81h-4.334v2.391h4.1v.752a.773.773,0,0,1-.658.869.976.976,0,0,1-.207,0h-3.234v2.305h4.332a.865.865,0,0,1,.627.248.833.833,0,0,1,.253.628v.744Zm-28.37,0v-9.558h7.024v.811c0,.542-.291.81-.869.81h-4.332v2.391h4.1v.752a.773.773,0,0,1-.66.869.752.752,0,0,1-.207,0h-3.231v2.305h4.316a.885.885,0,0,1,.629.248.843.843,0,0,1,.253.628v.744Zm9.815,0h-1.637l3.544-4.724-3.625-4.833h1.617a1.227,1.227,0,0,1,1.058.536l2.086,2.913,2.09-2.913a1.222,1.222,0,0,1,1.056-.536h1.608l-3.615,4.833,3.549,4.724h-1.629a1.23,1.23,0,0,1-1.049-.537l-2.011-2.793-2,2.793a1.213,1.213,0,0,1-1.008.537Zm35.49,0v-9.556h.963a.773.773,0,0,1,.869.658.819.819,0,0,1,0,.2v7.077h4.185a.762.762,0,0,1,.864.643v0a.727.727,0,0,1,0,.215v.756Zm-8.024,0v-9.556h.96a.77.77,0,0,1,.865.658.721.721,0,0,1,0,.2v7.077h4.188a.76.76,0,0,1,.859.646.727.727,0,0,1,0,.215v.756Zm35.844-14.993a1.887,1.887,0,0,1-1.555-2.959l7.05-10.246a1.885,1.885,0,0,1,3.11,0l7.054,10.246a1.889,1.889,0,0,1-.486,2.626h0a1.882,1.882,0,0,1-1.068.333Zm2.666-37.884a4.547,4.547,0,0,1,4.125-2.167l9.2-.18-26.1,37.883a4.5,4.5,0,0,1-4.075,2.167l-9.3.18Zm-54.122,37.276H491v-39.192h29.819v4.165a3.6,3.6,0,0,1,0,1.037,3.519,3.519,0,0,1-4,2.96H500.311v7.655h16.03v4.167a3.509,3.509,0,0,1-3.976,4H500.308v11.205a3.577,3.577,0,0,1,0,1.045,3.519,3.519,0,0,1-3.474,2.994,3.782,3.782,0,0,1-.526-.036Zm-28.974,0-5.365-.007v-14.89l-14.942-24.289h7.548a5.218,5.218,0,0,1,4.852,2.833l7.184,12.361,7.291-12.361a5.275,5.275,0,0,1,4.879-2.833h7.788L471.394,1094.7l-.054.086v10.835a3.577,3.577,0,0,1,0,1.045,3.521,3.521,0,0,1-3.473,2.994,3.7,3.7,0,0,1-.531-.038Zm-54.59,0h-5.283v-39.192h2.318l23.193,21.4V1074.43a3.518,3.518,0,0,1,4-4h5.359v39.195h-2.288l-23.3-21.068v17.064a3.518,3.518,0,0,1-3.475,4.037,3.613,3.613,0,0,1-.525-.044Zm120.038-24.85a1.753,1.753,0,0,1-.575-.6l-7.565-10.992a2.023,2.023,0,0,1,1.667-3.167h15.126a1.892,1.892,0,0,1,1.93,1.854h0a1.884,1.884,0,0,1-.567,1.39l-7.564,10.991a1.776,1.776,0,0,1-2.455.526Z" transform="translate(-545.008 -779.79)" fill="#8b8b8b"/>
  </g>
</svg>
