<svg id="icons_spite_34_footer_social" xmlns="http://www.w3.org/2000/svg" width="136" height="34" viewBox="0 0 136 34">
  <g id="Social_icon" transform="translate(94 -11)">
    <rect id="icon_bg" width="34" height="34" transform="translate(8 11)" fill="#fff" opacity="0"/>
    <path id="instagram" d="M216.858,388.668h-10.6A3.048,3.048,0,0,0,203.2,391.7V402.21a3.053,3.053,0,0,0,3.055,3.051h10.6a3.058,3.058,0,0,0,3.078-3.051V391.7a3.053,3.053,0,0,0-3.078-3.029Zm5.269,13.5h0a5.3,5.3,0,0,1-5.335,5.267H206.321a5.311,5.311,0,0,1-5.335-5.267v-10.4a5.311,5.311,0,0,1,5.335-5.267h10.471a5.3,5.3,0,0,1,5.335,5.267Zm-10.56-8.362a3.161,3.161,0,1,0,3.188,3.161,3.175,3.175,0,0,0-3.188-3.161Zm0,8.626h0a5.465,5.465,0,1,1,5.512-5.465,5.49,5.49,0,0,1-5.512,5.465Zm5.689-9.811h0a1.289,1.289,0,0,1-1.306-1.295,1.318,1.318,0,0,1,1.306-1.3,1.333,1.333,0,0,1,1.306,1.3,1.3,1.3,0,0,1-1.306,1.295Z" transform="translate(-186.986 -368.495)" fill="#1f1f1f"/>
  </g>
  <g id="Social_icon-2" data-name="Social_icon" transform="translate(67.999)">
    <rect id="icon_bg-2" data-name="icon_bg" width="34" height="34" transform="translate(0.001)" fill="#fff" opacity="0"/>
    <g id="Linkedin" transform="translate(5.001 5)">
      <rect id="Rectangle_1567" data-name="Rectangle 1567" width="5.46" height="15.607" transform="translate(0.001 7.802)" fill="#1f1f1f"/>
      <path id="Path_9629" data-name="Path 9629" d="M40.349,30.53a2.732,2.732,0,1,0,2.73,2.73A2.735,2.735,0,0,0,40.349,30.53Z" transform="translate(-37.618 -30.53)" fill="#1f1f1f"/>
      <path id="Path_9630" data-name="Path 9630" d="M78.569,59.083c-.368-2.94-1.84-4.793-5.815-4.793-2.822,0-3.945.44-4.593,1.672h0V54.29H63.74V69.9h4.55V61.724c0-2.04.388-3.581,2.907-3.581,2.487,0,2.684,1.9,2.684,3.712v8.039h4.685S78.654,59.769,78.569,59.083Z" transform="translate(-55.159 -46.485)" fill="#1f1f1f"/>
    </g>
  </g>
  <g id="Social_icon-3" data-name="Social_icon" transform="translate(30.001 -10)">
    <rect id="icon_bg-3" data-name="icon_bg" width="34" height="34" transform="translate(3.999 10)" fill="#fff" opacity="0"/>
    <path id="twitter" d="M-155.733,19.28c.009.208.014.417.014.627a13.712,13.712,0,0,1-13.806,13.807,13.725,13.725,0,0,1-7.438-2.18,9.769,9.769,0,0,0,1.157.068,9.738,9.738,0,0,0,6.027-2.077,4.858,4.858,0,0,1-4.533-3.37,4.858,4.858,0,0,0,.913.086,4.839,4.839,0,0,0,1.278-.17,4.856,4.856,0,0,1-3.893-4.758c0-.02,0-.041,0-.062a4.818,4.818,0,0,0,2.2.608,4.852,4.852,0,0,1-2.159-4.039,4.831,4.831,0,0,1,.657-2.44,13.775,13.775,0,0,0,10,5.071,4.844,4.844,0,0,1-.126-1.106,4.853,4.853,0,0,1,4.852-4.852,4.846,4.846,0,0,1,3.542,1.532,9.712,9.712,0,0,0,3.082-1.177,4.866,4.866,0,0,1-2.134,2.684,9.681,9.681,0,0,0,2.787-.763A9.842,9.842,0,0,1-155.733,19.28Z" transform="translate(185.961 2.507)" fill="#1f1f1f"/>
  </g>
  <g id="Social_icon-4" data-name="Social_icon" transform="translate(-6 -12)">
    <rect id="icon_bg-4" data-name="icon_bg" width="34" height="34" transform="translate(6 12)" fill="#fff" opacity="0"/>
    <path id="facebook" d="M26.645,13H23.873A1.05,1.05,0,0,0,22.779,14.2v2.58h3.855l-.451,4.38h-3.4V33.629H17.619V21.155H15.166V16.771h2.454V13.934c0-2.029.964-5.205,5.2-5.205l3.821.016Z" transform="translate(1.834 8.271)" fill="#1f1f1f"/>
  </g>
</svg>
