<svg id="icons_spite_200_site_features" xmlns="http://www.w3.org/2000/svg" width="600" height="400" viewBox="0 0 600 400">
  <g id="icons_spite_200_site_features-2" data-name="icons_spite_200_site_features">
    <g id="Icon01" transform="translate(0 -12)">
      <rect id="Rectangle_1" data-name="Rectangle 1" width="200" height="200" transform="translate(0 12)" fill="#eee" opacity="0"/>
      <g id="Starters_icon" transform="translate(-456 -1687)">
        <g id="Starters_icon-2" data-name="Starters_icon" transform="translate(-1 -9)">
          <rect id="icon_bg" width="70" height="70" transform="translate(524 1775)" fill="#fff" opacity="0"/>
          <path id="Path_10009" data-name="Path 10009" d="M38.2,32Zm6.7,2.5c0,.5.5-.2-9.1,9.4a.785.785,0,0,1-1.1,0,.845.845,0,0,1-.2-.6V37.1c-3.3,1.5-3.6,1.8-4.1,1.3l-8.8-8.7c-.5-.5-.2-.9,1.3-4.1H16.7a.86.86,0,0,1-.8-.8,1.421,1.421,0,0,1,.2-.6c9.6-9.6,9-9.1,9.4-9.1h7A27.907,27.907,0,0,1,52.8,6.4a.86.86,0,0,1,.8.8h0a27.907,27.907,0,0,1-8.7,20.3S44.9,34.5,44.9,34.5ZM23.7,24,31,16.7H26L18.7,24Zm9.9,11.8-9.3-9.3-1.1,2.4,8,8Zm9.7-6.7L36,36.4v5l7.3-7.3Zm1-3.2A25.936,25.936,0,0,0,52,8.1a25.936,25.936,0,0,0-17.8,7.7L25,25,35.1,35.1l2.4-2.4-.1.1-.2.2.2-.2Zm-6.5,6.5-.2.2Zm.4-.4-.3.3Zm5.7-10.3a3.889,3.889,0,1,1,0-5.5h0A3.924,3.924,0,0,1,43.9,21.7Zm-1.1-4.4a2.263,2.263,0,1,0,0,3.2A2.234,2.234,0,0,0,42.8,17.3ZM22.7,36.2l-4.4,4.4a.778.778,0,1,0,1.1,1.1l4.4-4.4a.778.778,0,1,0-1.1-1.1ZM26,38.8l-3.6,3.6a.778.778,0,1,0,1.1,1.1l3.6-3.6A.778.778,0,0,0,26,38.8ZM20.2,33l-3.7,3.6a.778.778,0,1,0,1.1,1.1l3.6-3.6a.785.785,0,0,0,0-1.1.566.566,0,0,0-1,0Z" transform="translate(517.515 1812.971) rotate(-45)" fill="#fff"/>
          <path id="Path_9588_1_" d="M0,0V55.3H61.1" transform="translate(528.2 1782)" fill="none" stroke="#fff" stroke-linecap="round" stroke-linejoin="round" stroke-miterlimit="10" stroke-width="2"/>
          <path id="Path_10010" data-name="Path 10010" d="M8,47.5H1.8a1,1,0,0,0,0,2H8a1,1,0,0,0,0-2Z" transform="translate(527.2 1781)" fill="#fff"/>
          <path id="Path_10011" data-name="Path 10011" d="M8,39.5H1.8a1,1,0,0,0,0,2H8a1,1,0,0,0,0-2Z" transform="translate(527.2 1781)" fill="#fff"/>
          <path id="Path_10012" data-name="Path 10012" d="M8,32H1.8a1,1,0,0,0,0,2H8a1,1,0,0,0,0-2Z" transform="translate(527.2 1781)" fill="#fff"/>
          <path id="Path_10013" data-name="Path 10013" d="M8,23H1.8a1,1,0,0,0,0,2H8a1,1,0,0,0,0-2Z" transform="translate(527.2 1781)" fill="#fff"/>
          <path id="Path_10014" data-name="Path 10014" d="M8,15H1.8a1,1,0,0,0,0,2H8a1,1,0,0,0,0-2Z" transform="translate(527.2 1781)" fill="#fff"/>
          <path id="Path_10015" data-name="Path 10015" d="M8,6.6H1.8a1,1,0,0,0,0,2H8a1,1,0,0,0,0-2Z" transform="translate(527.2 1781)" fill="#fff"/>
        </g>
      </g>
    </g>
    <g id="Icon02" transform="translate(200 -12)">
      <rect id="Rectangle_1-2" data-name="Rectangle 1" width="200" height="200" transform="translate(0 12)" fill="#eee" opacity="0"/>
      <g id="Trader_icon" transform="translate(-456 -1687)">
        <g id="Trader_icon-2" data-name="Trader_icon" transform="translate(-8.283 582)">
          <rect id="icon_bg-2" data-name="icon_bg" width="70" height="70" transform="translate(528.283 1184)" fill="#fff" opacity="0"/>
          <path id="Path_9797" data-name="Path 9797" d="M562.479,1249.286" transform="translate(0 2)" fill="none" stroke="#fff" stroke-miterlimit="10" stroke-width="2"/>
          <path id="Path_9798" data-name="Path 9798" d="M571.346,1221.9l-5.811,12.41-1.48-4.535a1.68,1.68,0,0,0,.594-1.081l1.081-2.56a1.433,1.433,0,0,0-1.48-1.382h-3.543a1.432,1.432,0,0,0-1.479,1.382l1.08,2.56a1.66,1.66,0,0,0,.594,1.081l-1.48,4.535-5.811-12.41c-9.655,7.485-16.556.983-18.328,12.215a32.076,32.076,0,0,0,27.2,15.175h0a31.931,31.931,0,0,0,27.1-15.175C587.893,1222.879,581,1229.381,571.346,1221.9Z" transform="translate(0 2)" fill="none" stroke="#fff" stroke-miterlimit="10" stroke-width="2"/>
          <path id="Path_9799" data-name="Path 9799" d="M550.458,1210.167c2.17,5.909,6.794,11.428,12.118,11.428s9.948-5.519,12.118-11.428c.789-.292,1.674-1.771,2.073-3.844.39-2.17,0-4.137-.788-4.438a16.438,16.438,0,0,0-.2-2.17c-.3-6.2-2.277-8.956-5.032-10.143a13.092,13.092,0,0,0-8.176-2.56,12.344,12.344,0,0,0-8.079,2.56c-3.056,1.284-5.12,4.331-5.217,11.622v.691c-.886.195-1.285,2.17-.886,4.438C548.686,1208.4,549.572,1210.07,550.458,1210.167Z" transform="translate(0 2)" fill="none" stroke="#fff" stroke-miterlimit="10" stroke-width="2"/>
        </g>
      </g>
    </g>
    <g id="Icon03" transform="translate(400 -12)">
      <rect id="Rectangle_1-3" data-name="Rectangle 1" width="200" height="200" transform="translate(0 12)" fill="#eee" opacity="0"/>
      <g id="Follow_icon" transform="translate(-456 -1687)">
        <g id="Trader_icon-3" data-name="Trader_icon" transform="translate(251.977 1381.21)">
          <rect id="icon_bg-3" data-name="icon_bg" width="70" height="70" transform="translate(263.023 384.79)" fill="#fff" opacity="0"/>
          <g id="Group_5029" data-name="Group 5029">
            <g id="Group_5027-2" data-name="Group 5027-2">
              <path id="Path_9811" data-name="Path 9811" d="M293,424.4l1.764,3.714,1.486,3.157,1.021-3.157,1.021,3.157,1.486-3.157,1.764-3.714a11.544,11.544,0,0,0,3.528,1.115c1.392.278,1.764.371,2.042,1.578a11.823,11.823,0,0,1-9.748,5.2h-.186a11.823,11.823,0,0,1-9.748-5.2c.278-1.207.649-1.3,2.042-1.578A9.449,9.449,0,0,0,293,424.4m7.985-2.042-2.414,5.106-.65-1.857a1.984,1.984,0,0,0,.278-.464l.465-1.114a.622.622,0,0,0-.65-.557h-1.486a.622.622,0,0,0-.65.557l.464,1.114a.511.511,0,0,0,.279.464l-.65,1.857-2.414-5.106c-3.992,3.064-6.87.464-7.613,5.013a13.14,13.14,0,0,0,11.234,6.314h0a13.14,13.14,0,0,0,11.234-6.314C307.852,422.821,304.974,425.514,300.982,422.357Z" fill="#fff"/>
            </g>
            <g id="Group_5028" data-name="Group 5028">
              <path id="Path_9812" data-name="Path 9812" d="M297.268,409.359a4.22,4.22,0,0,1,2.507.743l.185.092.186.093c.371.186,1.114.464,1.3,3.064v.186c0,.278.093.464.093.743l.093.928.371.093v.464c-.093.279-.093.464-.186.557l-.371.093-.279.65c-.742,1.857-2.228,3.806-3.713,3.806s-3.064-1.949-3.714-3.806l-.464-.743-.372-.093c-.093-.093-.093-.278-.185-.557V415.3l.371-.093.093-1.114v-.464c.093-3.064.928-3.436,1.3-3.621l.185-.093.186-.093a5.564,5.564,0,0,1,2.414-.464m0-1.393a5.131,5.131,0,0,0-3.342,1.021c-1.3.558-2.136,1.857-2.136,4.828v.279c-.371.093-.557.928-.371,1.857.185.835.557,1.578.928,1.578.929,2.414,2.786,4.735,5.014,4.735s4.178-2.321,5.013-4.735c.372-.093.743-.743.836-1.578.186-.929,0-1.671-.372-1.857a3.5,3.5,0,0,0-.092-.929c-.186-2.6-.929-3.713-2.043-4.27A6.04,6.04,0,0,0,297.268,407.966Z" fill="#fff"/>
            </g>
            <circle id="Ellipse_208" data-name="Ellipse 208" cx="19.497" cy="19.497" r="19.497" transform="translate(277.957 400.539)" fill="none" stroke="#fff" stroke-miterlimit="10" stroke-width="1.5"/>
          </g>
          <g id="Group_5031" data-name="Group 5031">
            <g id="Group_5030" data-name="Group 5030">
              <path id="Path_9813" data-name="Path 9813" d="M273.314,399.8l.743,1.114.279.372h1.021l.278-.372.743-1.114c.464.186.836.279,1.114.371a.936.936,0,0,1,.279.093h0a3.879,3.879,0,0,1-2.971,1.486h0a3.923,3.923,0,0,1-3.064-1.486c.093,0,.186-.093.371-.093a8.584,8.584,0,0,0,1.207-.371m2.879-1.207-1.3,1.857H274.8l-1.3-1.857c-1.393,1.114-2.507.186-2.692,1.857a4.64,4.64,0,0,0,4.085,2.228h0a4.971,4.971,0,0,0,4.085-2.228C278.7,398.775,277.678,399.7,276.193,398.589Z" fill="#fff"/>
            </g>
            <path id="Path_9814" data-name="Path 9814" d="M273.129,396.825c.278.836,1.021,1.671,1.764,1.671.835,0,1.485-.835,1.764-1.671.093,0,.278-.278.278-.557.093-.371,0-.65-.093-.65v-.278c0-.929-.278-1.393-.742-1.579a2.148,2.148,0,0,0-2.414,0c-.464.186-.743.65-.743,1.764v.093c-.186,0-.278.279-.186.65C272.85,396.547,272.943,396.825,273.129,396.825Z" fill="none" stroke="#fff" stroke-linejoin="round" stroke-width="1"/>
            <circle id="Ellipse_209" data-name="Ellipse 209" cx="6.963" cy="6.963" r="6.963" transform="translate(268.022 390.79)" fill="none" stroke="#fff" stroke-miterlimit="10" stroke-width="1.5"/>
          </g>
          <g id="Group_5033" data-name="Group 5033">
            <g id="Group_5032" data-name="Group 5032">
              <path id="Path_9815" data-name="Path 9815" d="M318.343,399.8l.743,1.114.278.372h1.022l.278-.372.743-1.114c.464.186.836.279,1.114.371a.955.955,0,0,1,.279.093h0a3.88,3.88,0,0,1-2.971,1.486h0a3.92,3.92,0,0,1-3.064-1.486c.093,0,.186-.093.371-.093a5.975,5.975,0,0,0,1.207-.371m2.971-1.207-1.3,1.857h-.092l-1.3-1.857c-1.393,1.114-2.507.186-2.693,1.857a4.642,4.642,0,0,0,4.085,2.228h0a4.968,4.968,0,0,0,4.085-2.228C323.728,398.775,322.707,399.7,321.314,398.589Z" fill="#fff"/>
            </g>
            <path id="Path_9816" data-name="Path 9816" d="M318.158,396.825c.278.836,1.021,1.671,1.764,1.671.835,0,1.485-.835,1.764-1.671.185,0,.371-.278.371-.557.093-.371,0-.65-.093-.65v-.278c-.093-.929-.371-1.3-.743-1.486a1.577,1.577,0,0,0-1.207-.371,2.066,2.066,0,0,0-1.207.371c-.464.186-.742.65-.742,1.764v.093c-.093,0-.186.278-.093.65A.384.384,0,0,0,318.158,396.825Z" fill="none" stroke="#fff" stroke-linejoin="round" stroke-width="1"/>
            <circle id="Ellipse_210" data-name="Ellipse 210" cx="6.963" cy="6.963" r="6.963" transform="translate(313.051 390.79)" fill="none" stroke="#fff" stroke-miterlimit="10" stroke-width="1.5"/>
          </g>
          <g id="Group_5035" data-name="Group 5035">
            <g id="Group_5034" data-name="Group 5034">
              <path id="Path_9817" data-name="Path 9817" d="M273.314,445.289l.743,1.114.279.372h1.021l.278-.372.743-1.114c.464.186.836.279,1.114.371a.966.966,0,0,1,.279.093h0a3.879,3.879,0,0,1-2.971,1.486h0a3.608,3.608,0,0,1-2.971-1.486c.093,0,.186-.093.371-.093.279-.092.65-.185,1.114-.371m2.879-1.207-1.3,1.857H274.8l-1.3-1.857c-1.393,1.114-2.507.186-2.692,1.857a4.64,4.64,0,0,0,4.085,2.228h0a4.971,4.971,0,0,0,4.085-2.228C278.7,444.268,277.678,445.2,276.193,444.082Z" fill="#fff"/>
            </g>
            <path id="Path_9818" data-name="Path 9818" d="M273.129,442.318c.278.836,1.021,1.671,1.764,1.671.835,0,1.485-.835,1.764-1.671.093,0,.278-.278.278-.557.093-.371,0-.65-.093-.65v-.278c-.092-.929-.371-1.3-.742-1.486a1.578,1.578,0,0,0-1.207-.371,2.067,2.067,0,0,0-1.207.371c-.464.186-.743.65-.743,1.764v.093c-.093,0-.186.278-.093.65C272.85,442.04,272.943,442.318,273.129,442.318Z" fill="none" stroke="#fff" stroke-linejoin="round" stroke-width="1"/>
            <circle id="Ellipse_211" data-name="Ellipse 211" cx="6.963" cy="6.963" r="6.963" transform="translate(268.022 436.283)" fill="none" stroke="#fff" stroke-miterlimit="10" stroke-width="1.5"/>
          </g>
          <g id="Group_5037" data-name="Group 5037">
            <g id="Group_5036" data-name="Group 5036">
              <path id="Path_9819" data-name="Path 9819" d="M318.343,445.289l.743,1.114.278.372h1.022l.278-.372.743-1.114c.464.186.836.279,1.114.371a.986.986,0,0,1,.279.093h0a3.88,3.88,0,0,1-2.971,1.486h0a3.608,3.608,0,0,1-2.971-1.486c.093,0,.185-.093.371-.093a7.658,7.658,0,0,0,1.114-.371m2.971-1.207-1.3,1.857h-.092l-1.3-1.857c-1.393,1.114-2.507.186-2.693,1.857a4.642,4.642,0,0,0,4.085,2.228h0a4.968,4.968,0,0,0,4.085-2.228C323.728,444.268,322.707,445.2,321.314,444.082Z" fill="#fff"/>
            </g>
            <path id="Path_9820" data-name="Path 9820" d="M318.158,442.318c.278.836,1.021,1.671,1.764,1.671.835,0,1.485-.835,1.764-1.671.092,0,.278-.278.278-.557.093-.371,0-.65-.093-.65v-.278c-.093-.929-.371-1.3-.742-1.486a1.579,1.579,0,0,0-1.207-.371,2.062,2.062,0,0,0-1.207.371c-.465.186-.743.65-.743,1.764v.093c-.093,0-.186.278-.093.65C317.879,442.04,318.065,442.318,318.158,442.318Z" fill="none" stroke="#fff" stroke-linejoin="round" stroke-width="1"/>
            <circle id="Ellipse_212" data-name="Ellipse 212" cx="6.963" cy="6.963" r="6.963" transform="translate(313.051 436.283)" fill="none" stroke="#fff" stroke-miterlimit="10" stroke-width="1.5"/>
          </g>
          <line id="Line_58" data-name="Line 58" x1="3.899" y1="3.899" transform="translate(279.813 402.488)" fill="none" stroke="#fff" stroke-miterlimit="10" stroke-width="1.5"/>
          <line id="Line_59" data-name="Line 59" x1="4.178" y1="4.178" transform="translate(311.101 433.777)" fill="none" stroke="#fff" stroke-miterlimit="10" stroke-width="1.5"/>
          <path id="Path_9821" data-name="Path 9821" d="M273.871,397.2" fill="#fff"/>
          <line id="Line_60" data-name="Line 60" y1="3.714" x2="3.714" transform="translate(311.38 402.767)" fill="none" stroke="#fff" stroke-miterlimit="10" stroke-width="1.5"/>
          <line id="Line_61" data-name="Line 61" y1="4.456" x2="4.456" transform="translate(279.535 433.869)" fill="none" stroke="#fff" stroke-miterlimit="10" stroke-width="1.5"/>
        </g>
      </g>
    </g>
  </g>
  <g id="icons_spite_200_site_features-3" data-name="icons_spite_200_site_features" transform="translate(0 200)">
    <g id="Icon01-2" data-name="Icon01" transform="translate(0 -12)">
      <rect id="Rectangle_1-4" data-name="Rectangle 1" width="200" height="200" transform="translate(0 12)" fill="#eee" opacity="0"/>
      <g id="Starters_icon-3" data-name="Starters_icon" transform="translate(-456 -1687)">
        <g id="icon_bg-4" data-name="icon_bg" transform="translate(0 -10)">
          <g id="Starters_triangle" transform="translate(0 4)">
            <path id="triangle" d="M630.06,1167.119l-23.142,103.214c-2.828,12.615-18.32,18.558-26.857,10.307l-79.212-76.568c-8.536-8.252-3.121-23.936,9.391-27.191l102.352-26.646C623.5,1147.394,632.544,1156.136,630.06,1167.119Z" transform="translate(-14.709 601.306)" fill="#5dcac2"/>
            <path id="triangle-2" data-name="triangle" d="M528.9,557.988l55.073-90.295c5.869-9.624,18.447-9.624,24.294,0l55.095,90.295c6.734,11.036-.274,26.077-12.147,26.077H541.046C529.173,584.065,522.166,569.024,528.9,557.988Z" transform="matrix(0.921, 0.391, -0.391, 0.921, 219.241, 1085.067)" fill="#5ec9c2" opacity="0.1"/>
            <path id="triangle-3" data-name="triangle" d="M526.412,465.546l2.863-4.694a.719.719,0,0,1,1.263,0l2.864,4.694a.875.875,0,0,1-.632,1.356h-5.728A.875.875,0,0,1,526.412,465.546Z" transform="matrix(0.208, 0.978, -0.978, 0.208, 835.702, 1253.479)" fill="#5ec9c2" opacity="0.2"/>
            <path id="triangle-4" data-name="triangle" d="M526.509,469.159l4.9-8.04a1.231,1.231,0,0,1,2.163,0l4.906,8.04a1.5,1.5,0,0,1-1.082,2.322h-9.81A1.5,1.5,0,0,1,526.509,469.159Z" transform="translate(1338.784 1775.388) rotate(135)" fill="#5ec9c2" opacity="0.2"/>
            <path id="triangle-5" data-name="triangle" d="M526.557,470.94l5.91-9.689a1.484,1.484,0,0,1,2.607,0l5.912,9.689a1.806,1.806,0,0,1-1.3,2.8H527.86A1.806,1.806,0,0,1,526.557,470.94Z" transform="translate(1042.711 1251.693) rotate(95)" fill="#5ec9c2" opacity="0.2"/>
          </g>
        </g>
      </g>
    </g>
    <g id="Icon02-2" data-name="Icon02" transform="translate(200 -12)">
      <rect id="Rectangle_1-5" data-name="Rectangle 1" width="200" height="200" transform="translate(0 12)" fill="#eee" opacity="0"/>
      <g id="Trader_icon-4" data-name="Trader_icon" transform="translate(-456 -1687)">
        <g id="icon_bg-5" data-name="icon_bg" transform="translate(0 -10)">
          <g id="Starters_triangle-2" data-name="Starters_triangle" transform="translate(3 7)">
            <path id="triangle-6" data-name="triangle" d="M528.9,557.988l55.073-90.295c5.869-9.624,18.447-9.624,24.294,0l55.095,90.295c6.734,11.036-.274,26.077-12.147,26.077H541.046C529.173,584.065,522.166,569.024,528.9,557.988Z" transform="matrix(0.995, -0.105, 0.105, 0.995, -92.041, 1339.588)" fill="#9175b5" opacity="0.1"/>
            <path id="triangle-7" data-name="triangle" d="M665.981,1295.2l-102.127-41.319c-11.005-4.454-11.86-21.024-1.478-28.729l84.917-63.048c9.05-6.72,20.71-2,22.521,9.111l17.208,104.367C689.125,1288.341,676.988,1299.655,665.981,1295.2Z" transform="matrix(0.998, -0.07, 0.07, 0.998, -162.19, 626.317)" fill="#9175b5"/>
            <path id="triangle-8" data-name="triangle" d="M526.412,465.546l2.863-4.694a.719.719,0,0,1,1.263,0l2.864,4.694a.875.875,0,0,1-.632,1.356h-5.728A.875.875,0,0,1,526.412,465.546Z" transform="translate(531.776 1173.019) rotate(49)" fill="#9175b6" opacity="0.2"/>
            <path id="triangle-9" data-name="triangle" d="M526.509,469.159l4.9-8.04a1.231,1.231,0,0,1,2.163,0l4.906,8.04a1.5,1.5,0,0,1-1.082,2.322h-9.81A1.5,1.5,0,0,1,526.509,469.159Z" transform="matrix(-0.276, 0.961, -0.961, -0.276, 1221.808, 1400.592)" fill="#9175b6" opacity="0.2"/>
            <path id="triangle-10" data-name="triangle" d="M526.557,470.94l5.91-9.689a1.484,1.484,0,0,1,2.607,0l5.912,9.689a1.806,1.806,0,0,1-1.3,2.8H527.86A1.806,1.806,0,0,1,526.557,470.94Z" transform="translate(708.965 1086.098) rotate(66)" fill="#9175b6" opacity="0.2"/>
          </g>
        </g>
      </g>
    </g>
    <g id="Icon03-2" data-name="Icon03" transform="translate(400 -12)">
      <rect id="Rectangle_1-6" data-name="Rectangle 1" width="200" height="200" transform="translate(0 12)" fill="#eee" opacity="0"/>
      <g id="Follow_icon-2" data-name="Follow_icon" transform="translate(-456 -1687)">
        <g id="icon_bg-6" data-name="icon_bg" transform="translate(0 -10)">
          <g id="Follow_triangle" transform="translate(-16 6)">
            <path id="triangle-11" data-name="triangle" d="M526.412,465.546l2.863-4.694a.719.719,0,0,1,1.263,0l2.864,4.694a.875.875,0,0,1-.632,1.356h-5.728A.875.875,0,0,1,526.412,465.546Z" transform="matrix(0.998, -0.07, 0.07, 0.998, 48.925, 1442.701)" fill="#c16262" opacity="0.2"/>
            <path id="triangle-12" data-name="triangle" d="M526.509,469.159l4.9-8.04a1.231,1.231,0,0,1,2.163,0l4.906,8.04a1.5,1.5,0,0,1-1.082,2.322h-9.81A1.5,1.5,0,0,1,526.509,469.159Z" transform="translate(645.944 1028.573) rotate(53)" fill="#c16262" opacity="0.2"/>
            <path id="triangle-13" data-name="triangle" d="M526.557,470.94l5.91-9.689a1.484,1.484,0,0,1,2.607,0l5.912,9.689a1.806,1.806,0,0,1-1.3,2.8H527.86A1.806,1.806,0,0,1,526.557,470.94Z" transform="translate(86.14 1248.881) rotate(13)" fill="#c16262" opacity="0.2"/>
            <path id="triangle-14" data-name="triangle" d="M689.839,1277.6l-98.361,38.991c-10.483,4.157-20.533-3.415-19.411-14.625L582.4,1196.65c1.264-12.871,15.918-20.67,25.4-13.523l88.025,66.322C705.319,1256.6,701.863,1272.833,689.839,1277.6Z" transform="translate(-53.98 553.59)" fill="#c16262"/>
            <path id="triangle-15" data-name="triangle" d="M689.56,1307.125l-105.595,6.688c-11.255.714-18.473-9.593-13.942-19.908l42.372-96.968c5.179-11.85,21.526-14.739,28.335-5.012l63.223,90.277C710.772,1291.937,702.469,1306.307,689.56,1307.125Z" transform="translate(-61.65 544.929)" fill="#c16262" opacity="0.103"/>
          </g>
        </g>
      </g>
    </g>
  </g>
</svg>
