<svg id="icons_spite_80_site_instruments" xmlns="http://www.w3.org/2000/svg" width="320" height="80" viewBox="0 0 320 80">
  <g id="Icon01" transform="translate(0 -12)">
    <rect id="Rectangle_1" data-name="Rectangle 1" width="80" height="80" transform="translate(0 12)" fill="#eee" opacity="0"/>
    <g id="icon" transform="translate(11 28)">
      <line id="Line_21" data-name="Line 21" y1="12.694" x2="8.961" transform="translate(11.948 25.015)" fill="none" stroke="#5a9fff" stroke-linecap="round" stroke-linejoin="round" stroke-miterlimit="10" stroke-width="1.5"/>
      <line id="Line_22" data-name="Line 22" x2="7.094" y2="4.294" transform="translate(26.322 24.082)" fill="none" stroke="#5a9fff" stroke-linecap="round" stroke-linejoin="round" stroke-miterlimit="10" stroke-width="1.5"/>
      <line id="Line_23" data-name="Line 23" y1="19.042" x2="13.254" transform="translate(38.83 7.281)" fill="none" stroke="#5a9fff" stroke-linecap="round" stroke-linejoin="round" stroke-miterlimit="10" stroke-width="1.5"/>
      <path id="Path_9587" data-name="Path 9587" d="M35.681,14.841,33.441,4.2,22.8,6.44" transform="translate(18.83 2.707)" fill="none" stroke="#5a9fff" stroke-linecap="round" stroke-linejoin="round" stroke-miterlimit="10" stroke-width="1.5"/>
      <path id="Path_9588" data-name="Path 9588" d="M.5.5V53.331H58.932" transform="translate(-0.5 -0.5)" fill="none" stroke="#5a9fff" stroke-linecap="round" stroke-linejoin="round" stroke-miterlimit="10" stroke-width="1.5"/>
      <circle id="Ellipse_183" data-name="Ellipse 183" cx="3.547" cy="3.547" r="3.547" transform="translate(19.415 18.668)" stroke-width="1.5" stroke="#5a9fff" stroke-linecap="round" stroke-linejoin="round" stroke-miterlimit="10" fill="none"/>
      <circle id="Ellipse_184" data-name="Ellipse 184" cx="3.547" cy="3.547" r="3.547" transform="translate(6.534 37.15)" stroke-width="1.5" stroke="#5a9fff" stroke-linecap="round" stroke-linejoin="round" stroke-miterlimit="10" fill="none"/>
      <circle id="Ellipse_185" data-name="Ellipse 185" cx="3.547" cy="3.547" r="3.547" transform="translate(33.043 26.696)" stroke-width="1.5" stroke="#5a9fff" stroke-linecap="round" stroke-linejoin="round" stroke-miterlimit="10" fill="none"/>
    </g>
  </g>
  <g id="Icon02" transform="translate(80 -12)">
    <rect id="Rectangle_1-2" data-name="Rectangle 1" width="80" height="80" transform="translate(0 12)" fill="#eee" opacity="0"/>
    <g id="indices_icon" transform="translate(-710.75 -2663.384)">
      <path id="Path_9588_1_" d="M0,0V62.446H69.081" transform="translate(717.75 2684.384)" fill="none" stroke="#5a9fff" stroke-linecap="round" stroke-linejoin="round" stroke-miterlimit="10" stroke-width="2"/>
      <path id="Path_9618" data-name="Path 9618" d="M7.7,48.985V28.3H18.628V48.985" transform="translate(720.067 2692.901)" fill="none" stroke="#5a9fff" stroke-linecap="round" stroke-linejoin="round" stroke-miterlimit="10" stroke-width="2"/>
      <path id="Path_9619" data-name="Path 9619" d="M20.3,54.041V11.5H31.1V54.041" transform="translate(723.859 2687.845)" fill="none" stroke="#5a9fff" stroke-linecap="round" stroke-linejoin="round" stroke-miterlimit="10" stroke-width="2"/>
      <path id="Path_9620" data-name="Path 9620" d="M34.6,51.182V21H45.4V51.182" transform="translate(728.163 2690.704)" fill="none" stroke="#5a9fff" stroke-linecap="round" stroke-linejoin="round" stroke-miterlimit="10" stroke-width="2"/>
    </g>
  </g>
  <g id="Icon03" transform="translate(160 -12)">
    <rect id="Rectangle_1-3" data-name="Rectangle 1" width="80" height="80" transform="translate(0 12)" fill="#eee" opacity="0"/>
    <g id="Commodities_icon" transform="translate(7.978 20.978)">
      <path id="Path_9609" data-name="Path 9609" d="M34.823,29.8h0a4.342,4.342,0,1,0,2.849,1.081A4,4,0,0,0,34.823,29.8Zm-.1,6.877a2.606,2.606,0,1,1,2.751-2.653A2.941,2.941,0,0,1,34.725,36.677Z" transform="translate(-0.534 -0.521)" fill="#5a9fff"/>
      <path id="Path_9610" data-name="Path 9610" d="M12.281,59.168a2.417,2.417,0,0,0-2.26-1.768H3.439a2.305,2.305,0,0,0-2.26,1.768L.1,63.491a2.573,2.573,0,0,0,.393,2.063,2.158,2.158,0,0,0,1.867.884H11.1a2.42,2.42,0,0,0,1.867-.884,2.2,2.2,0,0,0,.393-2.063Zm-.491,5.4a.892.892,0,0,1-.688.295H2.358a.892.892,0,0,1-.688-.295,1.059,1.059,0,0,1-.2-.786l1.081-4.323a.944.944,0,0,1,.884-.688H9.923a.944.944,0,0,1,.884.688l1.081,4.323A.742.742,0,0,1,11.79,64.572Z" transform="translate(0 -1.005)" fill="#5a9fff"/>
      <path id="Path_9611" data-name="Path 9611" d="M26.383,59.168a2.417,2.417,0,0,0-2.26-1.768H17.639a2.305,2.305,0,0,0-2.26,1.768L14.3,63.491a2.573,2.573,0,0,0,.393,2.063,2.158,2.158,0,0,0,1.867.884H25.3a2.42,2.42,0,0,0,1.867-.884,2.2,2.2,0,0,0,.393-2.063Zm-.491,5.4a.892.892,0,0,1-.688.295H16.46a.892.892,0,0,1-.688-.295,1.059,1.059,0,0,1-.2-.786l1.081-4.323a.944.944,0,0,1,.884-.688h6.484a.944.944,0,0,1,.884.688l1.179,4.323A1.059,1.059,0,0,1,25.892,64.572Z" transform="translate(-0.249 -1.005)" fill="#5a9fff"/>
      <path id="Path_9612" data-name="Path 9612" d="M8.66,56.639H17.4a2.42,2.42,0,0,0,1.867-.884,2.2,2.2,0,0,0,.393-2.063l-1.179-4.323a2.417,2.417,0,0,0-2.26-1.768H9.839a2.305,2.305,0,0,0-2.26,1.768L6.5,53.691a2.573,2.573,0,0,0,.393,2.063A2.1,2.1,0,0,0,8.66,56.639Zm-.786-2.554,1.081-4.323a.944.944,0,0,1,.884-.688h6.484a.944.944,0,0,1,.884.688l1.179,4.323a.816.816,0,0,1-.2.786.892.892,0,0,1-.688.295H8.66a.892.892,0,0,1-.688-.295A1.109,1.109,0,0,1,7.874,54.084Z" transform="translate(-0.112 -0.834)" fill="#5a9fff"/>
      <path id="Path_9613" data-name="Path 9613" d="M59.286,48.839a.775.775,0,0,0,.786-.786V40.586a.775.775,0,0,0-.786-.786.723.723,0,0,0-.786.786v7.467A.775.775,0,0,0,59.286,48.839Z" transform="translate(-1.024 -0.697)" fill="#5a9fff"/>
      <path id="Path_9614" data-name="Path 9614" d="M57.372,48.205V43.686a.786.786,0,0,0-1.572,0v4.519a.775.775,0,0,0,.786.786C56.979,48.893,57.372,48.6,57.372,48.205Z" transform="translate(-0.977 -0.751)" fill="#5a9fff"/>
      <path id="Path_9615" data-name="Path 9615" d="M65.524,59.186V58.6l-.589-.1a7.625,7.625,0,0,0-6.091,1.572,4.429,4.429,0,0,0-.982,1.375,6.974,6.974,0,0,0-.982-1.375A7.625,7.625,0,0,0,50.786,58.5l-.589.1-.1.589a6.72,6.72,0,0,0,1.572,5.4,8.175,8.175,0,0,0,5.7,2.063h.786a8.175,8.175,0,0,0,5.7-2.063A6.452,6.452,0,0,0,65.524,59.186Zm-8.449,5.993a6.442,6.442,0,0,1-4.323-1.67h0a4.808,4.808,0,0,1-1.179-3.635A5.576,5.576,0,0,1,55.8,61.151,5.023,5.023,0,0,1,57.074,65.179Zm5.8-1.67h0a6.442,6.442,0,0,1-4.323,1.67,5.023,5.023,0,0,1,1.277-4.028,6.009,6.009,0,0,1,3.832-1.277h.393A4.808,4.808,0,0,1,62.871,63.509Z" transform="translate(-0.876 -1.022)" fill="#5a9fff"/>
      <path id="Path_9616" data-name="Path 9616" d="M58.476,51.976a2.648,2.648,0,0,0-.688.786,2.648,2.648,0,0,0-.688-.786A6.443,6.443,0,0,0,52.286,50.7l-.589.1-.1.589a4.724,4.724,0,0,0,1.277,4.225,6.945,6.945,0,0,0,4.519,1.67h.589a6.463,6.463,0,0,0,4.519-1.67,5.209,5.209,0,0,0,1.277-4.225V50.9l-.589-.1A6.256,6.256,0,0,0,58.476,51.976Zm-4.323,2.653a3.773,3.773,0,0,1-.884-2.456,4.052,4.052,0,0,1,2.947.884,3.364,3.364,0,0,1,.884,2.751A4.16,4.16,0,0,1,54.153,54.629Zm8.253-2.456a3.316,3.316,0,0,1-.884,2.456,4.631,4.631,0,0,1-2.947,1.179,3.594,3.594,0,0,1,.884-2.751,4.027,4.027,0,0,1,2.751-.884Z" transform="translate(-0.902 -0.887)" fill="#5a9fff"/>
      <path id="Path_9617" data-name="Path 9617" d="M43.011,21.418c.982-.589,1.965-1.179,2.947-1.67.982-.589,1.965-1.081,2.947-1.67.491-.295.786-.2,1.081.295l.884,1.179c.688.982,1.375,1.867,1.965,2.849a5.218,5.218,0,0,0,3.733,2.653h.982v11.5a.775.775,0,0,0,.786.786.723.723,0,0,0,.786-.786V24.759a3.49,3.49,0,0,0,.884-.393,4.571,4.571,0,0,0,1.375-5.7C58.927,13.46,56.471,8.057,54.015,2.85A4.577,4.577,0,0,0,51.166.3a4.434,4.434,0,0,0-3.832.393L45.271,1.867c-.295.2-.491.295-.786.491a4.16,4.16,0,0,0-2.063,2.849,4.331,4.331,0,0,0,.786,3.635c.884,1.375,1.768,2.554,2.554,3.635l.2.2-.2.1a.3.3,0,0,1-.2.1,1.356,1.356,0,0,0-.393.295h-.1c-4.323,2.456-8.744,5.011-13.067,7.565-4.421,2.554-8.744,5.011-13.165,7.565-1.179.688-2.358,1.375-3.635,2.063L11.67,32.422A3.2,3.2,0,0,0,10,35.075a2.934,2.934,0,0,0,1.277,2.653,3.306,3.306,0,0,0,3.439,0l.2-.1.393-.2.2-.1h0c1.67-.884,3.144-1.867,4.814-2.849L21.4,33.8c.982-.589,1.965-1.179,3.144-1.867l.491-.295-.1.491c-.1.491-.1.982-.2,1.375l-.295,1.768c-.786,5.011-1.572,10.021-2.358,15.13-.1.688-.2,1.277-.295,1.867-.1.786-.2,1.179-.295,1.965h1.67c.491-2.849.884-5.7,1.375-8.646l.1-.393.295.295c3.144,2.653,5.6,4.814,8.056,6.779l.2.2-.2.2c-1.67,1.375-3.34,2.849-5.011,4.225a1.4,1.4,0,0,1,.2.589l.295,1.179c1.768-1.474,3.537-3.046,5.207-4.519a.737.737,0,0,1,1.179,0c1.67,1.375,3.34,2.849,5.011,4.225,1.572,1.375,3.242,2.751,4.814,4.126l.786.786H29.453a4.306,4.306,0,0,1-.688,1.867H49.2l-1.081-7.27c-.982-6.091-1.867-12.281-2.849-18.471l-.295-2.161C44.19,32.324,43.4,27.215,42.52,22.2,42.323,22.008,42.52,21.713,43.011,21.418Zm1.67-13.46a1.975,1.975,0,0,1-.393-.786c-.1-.2-.2-.491-.295-.688v-.2a3.324,3.324,0,0,1,1.572-2.653c.491-.295.884-.491,1.375-.786a9.818,9.818,0,0,1,1.375-.786,3.161,3.161,0,0,1,2.456-.393,2.7,2.7,0,0,1,1.768,1.67L59.32,17.783c.2.393.393.786.589,1.277a3.18,3.18,0,0,1-1.179,4.028h0a3.643,3.643,0,0,1-1.375.393A3.088,3.088,0,0,1,54.8,22.106c-1.965-2.751-3.93-5.5-5.8-8.253l-1.67-2.26A31.2,31.2,0,0,1,44.681,7.958ZM34.66,51.482l-.2.1-.2-.1c-1.375-1.081-2.653-2.26-4.028-3.439-1.081-.982-2.26-1.867-3.34-2.849l-.491-.393H42.52l-.491.393c-1.179.982-2.26,1.965-3.34,2.849C37.313,49.223,35.937,50.4,34.66,51.482Zm9.628-5.6c.393,2.751.884,5.6,1.277,8.351l1.179,7.074h0c0,.2-.1.393-.295.393h-.1l-.1-.1c-3.439-2.849-6.976-5.895-10.316-8.744l-.2-.2.2-.2c.884-.786,1.768-1.474,2.653-2.26,1.768-1.474,3.537-2.947,5.305-4.519l.295-.295ZM43.5,39.987l.393,2.849H24.933v-.295c.295-1.867.589-3.537.884-5.305.295-2.161.589-3.93.982-5.8a.944.944,0,0,1,.688-.884l12.576-7.369a.361.361,0,0,1,.295-.1.3.3,0,0,0,.2-.1l.295-.2.1.295C41.832,28.787,42.716,34.485,43.5,39.987ZM13.93,36.352a2.562,2.562,0,0,1-1.081.295,1.851,1.851,0,0,1-.786-.2,1.127,1.127,0,0,1-.491-1.179,1.439,1.439,0,0,1,.884-1.277c2.063-1.179,4.225-2.456,6.386-3.635s4.225-2.456,6.386-3.635c3.439-2.161,6.976-4.225,10.316-6.19,3.439-1.965,6.877-3.93,10.316-5.993l.982-.491.1.2c.393.589.786,1.179,1.277,1.867l.2.2-.2.1c-.884.491-1.768.982-2.554,1.474h0C35.544,23.776,25.228,29.77,13.93,36.352Z" transform="translate(-0.175 0)" fill="#5a9fff"/>
    </g>
  </g>
  <g id="Icon04" transform="translate(240 -12)">
    <rect id="Rectangle_1-4" data-name="Rectangle 1" width="80" height="80" transform="translate(0 12)" fill="#eee" opacity="0"/>
    <g id="Stock_icon" transform="translate(6 27)">
      <path id="Path_9621" data-name="Path 9621" d="M66.492,44.829H43.462a.857.857,0,0,1,0-1.713h23.1a.3.3,0,0,0,.273-.286V1.927a.3.3,0,0,0-.273-.286H1.845a.3.3,0,0,0-.273.286V42.9a.3.3,0,0,0,.273.286h23.1a.857.857,0,0,1,0,1.713H1.845A1.88,1.88,0,0,1,0,42.973V1.927A1.88,1.88,0,0,1,1.845,0H66.56a1.88,1.88,0,0,1,1.845,1.927V42.9A1.983,1.983,0,0,1,66.492,44.829Z" fill="#5a9fff"/>
      <path id="Path_9622" data-name="Path 9622" d="M44.047,64.494a8.747,8.747,0,1,1,8.747-8.747A8.761,8.761,0,0,1,44.047,64.494Zm0-16.185a7.379,7.379,0,1,0,7.379,7.379A7.416,7.416,0,0,0,44.047,48.309Z" transform="translate(-9.88 -11.56)" fill="#5a9fff"/>
      <path id="Path_9623" data-name="Path 9623" d="M47.125,63.05a4.225,4.225,0,1,1,4.225-4.225A4.241,4.241,0,0,1,47.125,63.05Zm0-7.141a2.856,2.856,0,1,0,2.856,2.856A2.857,2.857,0,0,0,47.125,55.909Z" transform="translate(-12.957 -16.315)" fill="#5a9fff"/>
      <path id="Path_9624" data-name="Path 9624" d="M52.109,45a.676.676,0,0,1-.476-.179,10.739,10.739,0,0,0-15.233,0,.673.673,0,0,1-.952-.952,12.139,12.139,0,0,1,17.2,0,.619.619,0,0,1,0,.952A.96.96,0,0,1,52.109,45Z" transform="translate(-9.844 -12.39)" fill="#5a9fff"/>
      <path id="Path_9625" data-name="Path 9625" d="M59.1,76.633a.676.676,0,0,1-.476-.179l-5.177-5.177a.673.673,0,0,1,.952-.952l3.987,3.987V70.8a.724.724,0,0,1,.714-.714h3.511L58.625,66.1a.673.673,0,0,1,.952-.952l5.177,5.177a.858.858,0,0,1,.179.774.732.732,0,0,1-.655.417H59.815v4.463a.732.732,0,0,1-.417.655C59.28,76.573,59.22,76.633,59.1,76.633Z" transform="translate(-15.7 -18.819)" fill="#5a9fff"/>
      <path id="Path_9626" data-name="Path 9626" d="M32.931,76.592a.358.358,0,0,1-.238-.06.732.732,0,0,1-.417-.655V71.415H27.814A.732.732,0,0,1,27.16,71a.666.666,0,0,1,.179-.774l5.177-5.177a.673.673,0,0,1,.952.952l-4.046,4.046h3.511a.614.614,0,0,1,.655.655v3.511l3.987-3.987a.673.673,0,0,1,.952.952l-5.177,5.177A.4.4,0,0,1,32.931,76.592Z" transform="translate(-7.999 -18.779)" fill="#5a9fff"/>
      <path id="Path_9627" data-name="Path 9627" d="M53.668,26.528H28.914a.714.714,0,0,1,0-1.428H53.668a.724.724,0,0,1,.714.714A.687.687,0,0,1,53.668,26.528Z" transform="translate(-6.975 -7.883)" fill="#5a9fff"/>
      <path id="Path_9628" data-name="Path 9628" d="M55.015,16.828h-33.5a.724.724,0,0,1-.714-.714.687.687,0,0,1,.714-.714h33.5a.724.724,0,0,1,.714.714A.687.687,0,0,1,55.015,16.828Z" transform="translate(-3.981 -4.836)" fill="#5a9fff"/>
    </g>
  </g>
</svg>
