<svg id="icons_spite_100_site_features_red_white" xmlns="http://www.w3.org/2000/svg" width="1200" height="80" viewBox="0 0 1200 80">
  <rect id="Rectangle_1739" data-name="Rectangle 1739" width="1200" height="80" fill="#3e3b44" opacity="0"/>
  <g id="Icon01" transform="translate(0 -12)">
    <rect id="Rectangle_1" data-name="Rectangle 1" width="100" height="80" transform="translate(0 12)" fill="#eee" opacity="0"/>
    <g id="icon_1" transform="translate(-1926.883 -1594.917)">
      <g id="icon_R" transform="translate(1995.45 1629.293)">
        <line id="Line_4" data-name="Line 4" y1="3.822" x2="4.888" transform="translate(0 17.095)" fill="none" stroke="#fff" stroke-linecap="round" stroke-linejoin="round" stroke-width="1.5"/>
        <line id="Line_5" data-name="Line 5" x1="6.103" y1="6.382" transform="translate(4.888 17.095)" fill="none" stroke="#fff" stroke-linecap="round" stroke-linejoin="round" stroke-width="1.5"/>
        <path id="Path_54" data-name="Path 54" d="M2050.089,1677.733c0-.839-1.734-16.516-1.734-16.516l-8.9-5.823" transform="translate(-2022.36 -1638.3)" fill="none" stroke="#fff" stroke-linejoin="round" stroke-width="1.5"/>
        <path id="Path_55" data-name="Path 55" d="M2038.164,1655.4l-6.1,6.382v12.357" transform="translate(-2021.071 -1638.3)" fill="none" stroke="#fff" stroke-linecap="round" stroke-linejoin="round" stroke-width="1.5"/>
        <ellipse id="Ellipse_1" data-name="Ellipse 1" cx="6.476" cy="7.95" rx="6.476" ry="7.95" transform="translate(4.515)" fill="none" stroke="#fff" stroke-linecap="round" stroke-linejoin="round" stroke-width="1.5"/>
      </g>
      <g id="icon_L" transform="translate(1929.883 1629.293)">
        <line id="Line_4-2" data-name="Line 4" x1="4.888" y1="3.822" transform="translate(22.841 17.095)" fill="none" stroke="#fff" stroke-linecap="round" stroke-linejoin="round" stroke-width="1.5"/>
        <line id="Line_5-2" data-name="Line 5" y1="6.382" x2="6.102" transform="translate(16.738 17.095)" fill="none" stroke="#fff" stroke-linecap="round" stroke-linejoin="round" stroke-width="1.5"/>
        <path id="Path_54-2" data-name="Path 54" d="M2039.453,1677.733c0-.839,1.734-16.516,1.734-16.516l8.9-5.823" transform="translate(-2039.453 -1638.3)" fill="none" stroke="#fff" stroke-linejoin="round" stroke-width="1.5"/>
        <path id="Path_55-2" data-name="Path 55" d="M2032.062,1655.4l6.1,6.382v12.357" transform="translate(-2021.426 -1638.3)" fill="none" stroke="#fff" stroke-linecap="round" stroke-linejoin="round" stroke-width="1.5"/>
        <ellipse id="Ellipse_1-2" data-name="Ellipse 1" cx="6.476" cy="7.95" rx="6.476" ry="7.95" transform="translate(10.263)" fill="none" stroke="#fff" stroke-linecap="round" stroke-linejoin="round" stroke-width="1.5"/>
      </g>
      <g id="İcon_big" transform="translate(1952.125 1618.917)">
        <path id="Path_46" data-name="Path 46" d="M2011.653,1681.357l-1.833-20.908-13.245-8.377-1.281,15.334-3.668-2.528-2.3,4.473,3.165,12Z" transform="translate(-1963.339 -1626.351)" fill="#d51820"/>
        <path id="Path_47" data-name="Path 47" d="M1957.848,1681.357l1.833-20.908,13.245-8.377,1.282,15.334,3.668-2.528,2.3,4.473-3.166,12Z" transform="translate(-1957.848 -1626.351)" fill="#d51820"/>
        <path id="Path_48" data-name="Path 48" d="M1957.848,1681.3c0-1.249,1.833-20.907,1.833-20.907l13.245-8.663" transform="translate(-1957.848 -1626.291)" fill="none" stroke="#fff" stroke-linejoin="round" stroke-width="1.5"/>
        <path id="Path_49" data-name="Path 49" d="M1976.111,1651.726l1.333,16.243,7.747-6.747Z" transform="translate(-1961.033 -1626.291)" fill="none" stroke="#fff" stroke-linecap="round" stroke-linejoin="round" stroke-width="1.5"/>
        <line id="Line_1" data-name="Line 1" x1="3.165" y2="12.328" transform="translate(19.159 42.678)" fill="none" stroke="#fff" stroke-linecap="round" stroke-linejoin="round" stroke-width="1.5"/>
        <path id="Path_50" data-name="Path 50" d="M2013.184,1681.3c0-1.249-1.833-20.907-1.833-20.907l-13.244-8.663" transform="translate(-1964.87 -1626.291)" fill="none" stroke="#fff" stroke-linejoin="round" stroke-width="1.5"/>
        <path id="Path_51" data-name="Path 51" d="M1996.188,1651.726l-1.333,16.243-7.747-6.747Z" transform="translate(-1962.951 -1626.291)" fill="none" stroke="#fff" stroke-linecap="round" stroke-linejoin="round" stroke-width="1.5"/>
        <path id="Path_52" data-name="Path 52" d="M1986.236,1663.228l-4.13,3.6,2.3,4.15h3.665l2.3-4.15Z" transform="translate(-1962.079 -1628.297)" fill="none" stroke="#fff" stroke-linecap="round" stroke-linejoin="round" stroke-width="1.5"/>
        <line id="Line_2" data-name="Line 2" x2="3.165" y2="12.328" transform="translate(25.99 42.678)" fill="none" stroke="#fff" stroke-linecap="round" stroke-linejoin="round" stroke-width="1.5"/>
        <line id="Line_3" data-name="Line 3" x2="7.081" transform="translate(33.237 47.204)" fill="none" stroke="#fff" stroke-linecap="round" stroke-linejoin="round" stroke-width="1.5"/>
        <path id="Path_53" data-name="Path 53" d="M1994.708,1632.746c0-6.533-4.314-11.829-9.635-11.829s-9.635,5.3-9.635,11.829,4.314,11.828,9.635,11.828S1994.708,1639.278,1994.708,1632.746Z" transform="translate(-1960.916 -1620.917)" fill="none" stroke="#fff" stroke-linecap="round" stroke-linejoin="round" stroke-width="1.5"/>
      </g>
    </g>
  </g>
  <g id="Icon02" transform="translate(100 -12)">
    <rect id="Rectangle_1-2" data-name="Rectangle 1" width="100" height="80" transform="translate(0 12)" fill="#eee" opacity="0"/>
    <g id="icon_bg" transform="translate(-1313.817 -481.987)">
      <path id="Path_58" data-name="Path 58" d="M1231.508,505.892a2.1,2.1,0,1,0-2.1,2.1A2.1,2.1,0,0,0,1231.508,505.892Z" transform="translate(124.495 5.445)" fill="#d51820"/>
      <line id="Line_8" data-name="Line 8" x2="62.94" transform="translate(1331.817 562.244)" fill="none" stroke="#fff" stroke-miterlimit="10" stroke-width="1.5"/>
      <rect id="Rectangle_11" data-name="Rectangle 11" width="8.466" height="27.037" transform="translate(1331.817 531.058)" fill="none" stroke="#fff" stroke-width="1.5"/>
      <rect id="Rectangle_12" data-name="Rectangle 12" width="8.466" height="36.027" transform="translate(1386.533 522.068)" fill="#d51820" stroke="#fff" stroke-width="1.5"/>
      <rect id="Rectangle_13" data-name="Rectangle 13" width="8.466" height="36.542" transform="translate(1350.056 521.553)" fill="#d51820" stroke="#fff" stroke-width="1.5"/>
      <ellipse id="Ellipse_3" data-name="Ellipse 3" cx="4.864" cy="4.864" rx="4.864" ry="4.864" transform="matrix(0.381, -0.925, 0.925, 0.381, 1347.557, 513.983)" fill="none" stroke="#fff" stroke-miterlimit="10" stroke-width="1.5"/>
      <path id="Path_59" data-name="Path 59" d="M1295.864,506.617a2.1,2.1,0,1,0-2.1,2.1A2.1,2.1,0,0,0,1295.864,506.617Z" transform="translate(97.215 5.138)" fill="#d51820"/>
      <ellipse id="Ellipse_4" data-name="Ellipse 4" cx="4.864" cy="4.864" rx="4.864" ry="4.864" transform="matrix(0.987, -0.16, 0.16, 0.987, 1385.404, 507.73)" fill="none" stroke="#fff" stroke-miterlimit="10" stroke-width="1.5"/>
      <rect id="Rectangle_14" data-name="Rectangle 14" width="8.466" height="28.582" transform="translate(1368.294 529.513)" fill="none" stroke="#fff" stroke-width="1.5"/>
      <ellipse id="Ellipse_5" data-name="Ellipse 5" cx="2.924" cy="2.924" rx="2.924" ry="2.924" transform="translate(1369.521 518.959)" fill="none" stroke="#fff" stroke-miterlimit="10" stroke-width="1.5"/>
      <path id="Path_60" data-name="Path 60" d="M1199.549,525.765a2.924,2.924,0,1,0-2.924,2.923A2.924,2.924,0,0,0,1199.549,525.765Z" transform="translate(138.744 -2.629)" fill="none" stroke="#fff" stroke-miterlimit="10" stroke-width="1.5"/>
      <line id="Line_9" data-name="Line 9" y1="7.389" x2="12.167" transform="translate(1337.559 513.815)" fill="none" stroke="#fff" stroke-miterlimit="10" stroke-width="1.5"/>
      <line id="Line_10" data-name="Line 10" x2="11.131" y2="6.985" transform="translate(1358.39 513.227)" fill="none" stroke="#fff" stroke-miterlimit="10" stroke-width="1.5"/>
      <line id="Line_11" data-name="Line 11" y1="6.643" x2="11.581" transform="translate(1375.018 513.851)" fill="none" stroke="#fff" stroke-miterlimit="10" stroke-width="1.5"/>
    </g>
  </g>
  <g id="Icon03" transform="translate(200 -12)">
    <rect id="Rectangle_1-3" data-name="Rectangle 1" width="100" height="80" transform="translate(0 12)" fill="#eee" opacity="0"/>
    <g id="icon" transform="translate(25 21)">
      <g id="Group_4838" data-name="Group 4838" transform="translate(0 13.488)">
        <path id="Path_9555" data-name="Path 9555" d="M8.448,17.214A24.043,24.043,0,0,0,.939,32.926L.8,34.873h0A24.529,24.529,0,0,0,11.229,54.9h0l1.808,1.112h0A24.467,24.467,0,0,0,45.992,21.663s-.556-.834-.7-1.112a11.282,11.282,0,0,0-.834-1.112,24.774,24.774,0,0,0-11.819-8.065,12.8,12.8,0,0,1-1.251-.417,4.917,4.917,0,0,1-.834-.139,14.85,14.85,0,0,0-3.476-.417" transform="translate(-0.8 -10.4)" fill="none" stroke="#fff" stroke-miterlimit="10" stroke-width="1.5"/>
      </g>
      <g id="Group_4839" data-name="Group 4839" transform="translate(4.589 0)">
        <path id="Path_9556" data-name="Path 9556" d="M12.328,16.119a4.73,4.73,0,0,0,1.391.139,6.2,6.2,0,0,0,4.589-2.086A5.829,5.829,0,0,0,19.7,10.279,5.935,5.935,0,0,0,13.718,4.3,6.054,6.054,0,0,0,7.6,10.279,5.952,5.952,0,0,0,12.328,16.119Z" transform="translate(-2.733 0.706)" fill="#d51820" stroke="#fff" stroke-miterlimit="10" stroke-width="1.5"/>
        <path id="Path_9557" data-name="Path 9557" d="M30.84,24.534a3.409,3.409,0,0,0-2.225-.834h0a4,4,0,0,0-2.5.973A3.482,3.482,0,0,0,25,27.176a3.628,3.628,0,0,0,1.53,2.92,2.982,2.982,0,0,0,1.669.556h.278a3.443,3.443,0,0,0,3.476-3.476,1.764,1.764,0,0,0-.139-.834A2.377,2.377,0,0,0,30.84,24.534Z" transform="translate(4.062 8.282)" fill="#d51820" stroke="#fff" stroke-miterlimit="10" stroke-width="1.5"/>
        <path id="Path_9558" data-name="Path 9558" d="M18.233,30.656A2.091,2.091,0,0,0,16.7,30.1a2.493,2.493,0,0,0-2.5,2.5,2.715,2.715,0,0,0,.139.973,3.283,3.283,0,0,0,1.112,1.251,3.273,3.273,0,0,0,1.112.278h.278a2.547,2.547,0,0,0,2.225-2.5A1.78,1.78,0,0,0,18.233,30.656Z" transform="translate(-0.156 10.781)" fill="#d51820" stroke="#fff" stroke-miterlimit="10" stroke-width="1.5"/>
        <path id="Path_9559" data-name="Path 9559" d="M19.487,27.778h0a6.718,6.718,0,0,0-1.669-.278h-.139A5.971,5.971,0,0,0,11.7,33.2v.7c0,.139.139.834.139.834.834,3.337,4.172,8.9,4.867,10.012l.973,1.53.973-1.53c.834-1.391,5.006-8.482,5.006-11.263A5.842,5.842,0,0,0,19.487,27.778Z" transform="translate(-1.132 9.766)" fill="none" stroke="#fff" stroke-miterlimit="10" stroke-width="1.5"/>
        <path id="Path_9560" data-name="Path 9560" d="M32.929,21.934h0a2.444,2.444,0,0,0-1.112-.417,6.3,6.3,0,0,0-2.225-.417A7.122,7.122,0,0,0,22.5,28.192a16.07,16.07,0,0,0,1.53,5.145l.417.834h0c.556,1.112,1.53,3.059,2.642,5.006h0l.139.139A25.656,25.656,0,0,0,28.9,42.1l.834,1.53.834-1.53c.7-1.112,6.257-10.429,6.257-13.905A7.393,7.393,0,0,0,32.929,21.934Z" transform="translate(3.086 7.267)" fill="none" stroke="#fff" stroke-miterlimit="10" stroke-width="1.5"/>
        <path id="Path_9561" data-name="Path 9561" d="M8.133,22.948c2.781,5.562,5.84,10.707,5.979,10.985l.834,1.53.834-1.53c.7-1.112,6.535-10.707,8.9-17.521l.7-2.086a11.23,11.23,0,0,0,.417-2.642A11.008,11.008,0,0,0,14.807.7,10.773,10.773,0,0,0,4.1,11.685c0,1.808.973,5.006,3.059,9.316Z" transform="translate(-4.1 -0.7)" fill="none" stroke="#fff" stroke-miterlimit="10" stroke-width="1.5"/>
      </g>
    </g>
  </g>
  <g id="Icon04" transform="translate(300 -12)">
    <rect id="Rectangle_1-4" data-name="Rectangle 1" width="100" height="80" transform="translate(0 12)" fill="#eee" opacity="0"/>
    <g id="icon-2" data-name="icon" transform="translate(-2467.032 -657.39)">
      <g id="Group_4868" data-name="Group 4868" transform="translate(2495.594 686.71)">
        <circle id="Ellipse_6" data-name="Ellipse 6" cx="16.742" cy="16.742" r="16.742" transform="translate(0 30.934) rotate(-67.5)" fill="none" stroke="#fff" stroke-miterlimit="10" stroke-width="1.5"/>
        <circle id="Ellipse_7" data-name="Ellipse 7" cx="11.486" cy="11.486" r="11.486" transform="translate(10.388 10.388)" fill="#d51820" stroke="#fff" stroke-miterlimit="10" stroke-width="1.5"/>
        <path id="Path_9562" data-name="Path 9562" d="M2542.295,725.234v-.221a3.758,3.758,0,0,0-3.092-3.692v-.992h-1.325v.992a3.758,3.758,0,0,0-3.092,3.692,3.9,3.9,0,0,0,2.744,3.6c.228.085.46.161.692.237a9.9,9.9,0,0,1,1.18.442,2.483,2.483,0,0,1,1.569,2.233,2.43,2.43,0,0,1-4.859.049l0-.217h-1.323l0,.224a3.767,3.767,0,0,0,3.092,3.636v.992h1.325v-.992a3.723,3.723,0,0,0,2.236-6.045,4.361,4.361,0,0,0-2.053-1.307c-.184-.065-.373-.126-.562-.188a6.1,6.1,0,0,1-1.782-.795,2.371,2.371,0,0,1-.931-1.868,2.429,2.429,0,1,1,4.859,0v.221Z" transform="translate(-2516.665 -706.395)" fill="#fff"/>
        <line id="Line_12" data-name="Line 12" y2="1.544" transform="translate(21.874 7.034)" fill="none" stroke="#fff" stroke-linecap="round" stroke-linejoin="round" stroke-width="1.5"/>
        <line id="Line_13" data-name="Line 13" x2="0.477" y2="1.469" transform="translate(17.288 7.76)" fill="none" stroke="#fff" stroke-linecap="round" stroke-linejoin="round" stroke-width="1.5"/>
        <line id="Line_14" data-name="Line 14" x2="0.908" y2="1.249" transform="translate(13.151 9.868)" fill="none" stroke="#fff" stroke-linecap="round" stroke-linejoin="round" stroke-width="1.5"/>
        <line id="Line_15" data-name="Line 15" x2="1.249" y2="0.908" transform="translate(9.868 13.151)" fill="none" stroke="#fff" stroke-linecap="round" stroke-linejoin="round" stroke-width="1.5"/>
        <line id="Line_16" data-name="Line 16" x2="1.469" y2="0.477" transform="translate(7.76 17.288)" fill="none" stroke="#fff" stroke-linecap="round" stroke-linejoin="round" stroke-width="1.5"/>
        <line id="Line_17" data-name="Line 17" x2="1.544" transform="translate(7.034 21.874)" fill="none" stroke="#fff" stroke-linecap="round" stroke-linejoin="round" stroke-width="1.5"/>
        <line id="Line_18" data-name="Line 18" x1="1.544" transform="translate(35.17 21.874)" fill="none" stroke="#fff" stroke-linecap="round" stroke-linejoin="round" stroke-width="1.5"/>
        <line id="Line_19" data-name="Line 19" x1="1.469" y2="0.477" transform="translate(34.519 17.288)" fill="none" stroke="#fff" stroke-linecap="round" stroke-linejoin="round" stroke-width="1.5"/>
        <line id="Line_20" data-name="Line 20" x1="1.249" y2="0.908" transform="translate(32.631 13.151)" fill="none" stroke="#fff" stroke-linecap="round" stroke-linejoin="round" stroke-width="1.5"/>
        <line id="Line_21" data-name="Line 21" x1="0.908" y2="1.249" transform="translate(29.689 9.868)" fill="none" stroke="#fff" stroke-linecap="round" stroke-linejoin="round" stroke-width="1.5"/>
        <line id="Line_22" data-name="Line 22" x1="0.477" y2="1.469" transform="translate(25.983 7.76)" fill="none" stroke="#fff" stroke-linecap="round" stroke-linejoin="round" stroke-width="1.5"/>
      </g>
      <path id="Path_9563" data-name="Path 9563" d="M2542.615,687.481a33.143,33.143,0,0,1-25.147-7.091,33.144,33.144,0,0,1-25.148,7.091s-4.842,41.1,25.148,49.96C2547.458,728.578,2542.615,687.481,2542.615,687.481Z" transform="translate(0 0)" fill="none" stroke="#fff" stroke-linecap="round" stroke-miterlimit="10" stroke-width="1.5"/>
      <line id="Line_23" data-name="Line 23" y2="11.453" transform="translate(2517.468 680.39)" fill="none" stroke="#fff" stroke-linecap="round" stroke-miterlimit="10" stroke-width="1.5"/>
      <line id="Line_24" data-name="Line 24" y2="12.026" transform="translate(2517.468 725.326)" fill="none" stroke="#fff" stroke-linecap="round" stroke-miterlimit="10" stroke-width="1.5"/>
    </g>
  </g>
  <g id="Icon05" transform="translate(400 -12)">
    <rect id="Rectangle_1-5" data-name="Rectangle 1" width="100" height="80" transform="translate(0 12)" fill="#eee" opacity="0"/>
    <g id="icon-3" data-name="icon" transform="translate(-544.845 -968.5)">
      <g id="Group_4873" data-name="Group 4873">
        <circle id="Ellipse_8" data-name="Ellipse 8" cx="13.298" cy="13.298" r="13.298" transform="translate(601.526 996.389)" fill="none" stroke="#fff" stroke-linecap="round" stroke-miterlimit="9.998" stroke-width="1.5"/>
        <g id="Path_9571" data-name="Path 9571">
          <path id="Path_10116" data-name="Path 10116" d="M605.858,1014.874A10.352,10.352,0,1,1,620,1018.65,10.363,10.363,0,0,1,605.858,1014.874Z" fill="#d51820"/>
          <path id="Path_10117" data-name="Path 10117" d="M623.129,1004.881a9.6,9.6,0,1,0-3.5,13.119,9.613,9.613,0,0,0,3.5-13.119m1.3-.751a11.1,11.1,0,1,1-15.169-4.049A11.1,11.1,0,0,1,624.427,1004.13Z" fill="#fff"/>
        </g>
        <path id="Path_9572" data-name="Path 9572" d="M616.86,1012.471a1.588,1.588,0,0,0-.483-1.166,4.191,4.191,0,0,0-1.6-.859,5.521,5.521,0,0,1-2.315-1.236,2.781,2.781,0,0,1-.78-2.066,2.906,2.906,0,0,1,.719-2.042,3.1,3.1,0,0,1,1.978-.951v-1.678h1.2v1.685a2.9,2.9,0,0,1,1.971,1.039,3.619,3.619,0,0,1,.7,2.337l-1.487,0a2.432,2.432,0,0,0-.479-1.564,1.6,1.6,0,0,0-1.322-.6,1.6,1.6,0,0,0-1.79,1.748,1.6,1.6,0,0,0,.464,1.192,4.541,4.541,0,0,0,1.664.86,5.745,5.745,0,0,1,2.3,1.247,2.734,2.734,0,0,1,.754,2.034,2.785,2.785,0,0,1-.78,2.078,3.48,3.48,0,0,1-2.148.917v1.458h-1.192v-1.45a3.473,3.473,0,0,1-2.142-.951,3.106,3.106,0,0,1-.8-2.4l.01-.031,1.443,0a2.069,2.069,0,0,0,.593,1.667,2.168,2.168,0,0,0,1.443.5,2.294,2.294,0,0,0,1.529-.469A1.6,1.6,0,0,0,616.86,1012.471Z" fill="#fff"/>
      </g>
      <g id="Group_4874" data-name="Group 4874">
        <g id="Path_9573" data-name="Path 9573">
          <path id="Path_10118" data-name="Path 10118" d="M566.185,1037.829a10.351,10.351,0,1,1,14.144,3.776A10.363,10.363,0,0,1,566.185,1037.829Z" fill="#d51820"/>
          <path id="Path_10119" data-name="Path 10119" d="M583.455,1027.836a9.6,9.6,0,1,0-3.5,13.12,9.613,9.613,0,0,0,3.5-13.12m1.3-.751a11.1,11.1,0,1,1-15.169-4.049A11.1,11.1,0,0,1,584.754,1027.085Z" fill="#fff"/>
        </g>
        <circle id="Ellipse_9" data-name="Ellipse 9" cx="13.3" cy="13.3" r="13.3" transform="translate(561.845 1019.345)" fill="none" stroke="#fff" stroke-linecap="round" stroke-miterlimit="10" stroke-width="1.5"/>
        <path id="Path_9574" data-name="Path 9574" d="M575.344,1032.388l3.038-5.609,1.894,0-3.528,6.075,2.638,0v1.04l-3.239,0v1.412l3.239,0v1.032l-3.239,0,0,2.757-1.665,0,0-2.757-3.171,0v-1.032l3.171,0v-1.412l-3.171,0v-1.04l2.63,0-3.549-6.067,1.911,0Z" fill="#fff"/>
      </g>
      <path id="Path_10120" data-name="Path 10120" d="M623.028,1026.192a28.522,28.522,0,0,1-39.081,21.085" fill="none" stroke="#fff" stroke-linecap="round" stroke-linejoin="round" stroke-width="1.5" stroke-dasharray="0.2 3"/>
      <path id="Path_10121" data-name="Path 10121" d="M566.813,1016.76a28.523,28.523,0,0,1,38.858-22.2" fill="none" stroke="#fff" stroke-linecap="round" stroke-linejoin="round" stroke-width="1.5" stroke-dasharray="0.2 3"/>
    </g>
  </g>
  <g id="Icon06" transform="translate(500 -12)">
    <rect id="Rectangle_1-6" data-name="Rectangle 1" width="100" height="80" transform="translate(0 12)" fill="#eee" opacity="0"/>
    <g id="icon-4" data-name="icon" transform="translate(-1044.174 -1155.402)">
      <g id="Group_4877" data-name="Group 4877" transform="translate(1054.174 1178.855)">
        <g id="Group_4876" data-name="Group 4876" transform="translate(0 0)">
          <path id="Path_9578" data-name="Path 9578" d="M1100.035,1252.986h10.081a20.137,20.137,0,0,0,.27,5.1,7.079,7.079,0,0,0,3.924,4.741h0c.59.3.314,1.015-.393,1.015h-27.765c-.707,0-.982-.713-.392-1.015h0a7.081,7.081,0,0,0,3.924-4.741,20.131,20.131,0,0,0,.27-5.1Z" transform="translate(-1065.47 -1205.802)" fill="none" stroke="#fff" stroke-linecap="round" stroke-linejoin="round" stroke-width="1.5"/>
          <circle id="Ellipse_10" data-name="Ellipse 10" cx="0.675" cy="0.675" r="0.675" transform="translate(33.891 42.36)" stroke-width="1.5" stroke="#fff" stroke-linecap="round" stroke-linejoin="round" fill="none"/>
          <path id="Path_9579" data-name="Path 9579" d="M1112.014,1248.292h-54.431a3.41,3.41,0,0,1-3.41-3.41v-4.889h13.371" transform="translate(-1054.174 -1201.108)" fill="none" stroke="#fff" stroke-linecap="round" stroke-linejoin="round" stroke-width="1.5"/>
          <path id="Path_9580" data-name="Path 9580" d="M1111.966,1218h-57.792v-35.189a3.7,3.7,0,0,1,3.7-3.7h61.737a3.7,3.7,0,0,1,3.7,3.7v17.165" transform="translate(-1054.174 -1179.112)" fill="none" stroke="#fff" stroke-linecap="round" stroke-linejoin="round" stroke-width="1.5"/>
        </g>
        <line id="Line_25" data-name="Line 25" x1="18.051" transform="translate(60.106 50.621)" fill="none" stroke="#fff" stroke-miterlimit="10" stroke-width="1.5"/>
        <path id="Path_9581" data-name="Path 9581" d="M1165.581,1248.957h-19.117a1.733,1.733,0,0,1-1.733-1.732v-33.717a1.733,1.733,0,0,1,1.733-1.733h19.117a1.733,1.733,0,0,1,1.733,1.733v33.717A1.733,1.733,0,0,1,1165.581,1248.957Z" transform="translate(-1086.891 -1190.913)" fill="none" stroke="#fff" stroke-miterlimit="10" stroke-width="1.5"/>
        <path id="Path_9582" data-name="Path 9582" d="M1162.671,1263.891a.6.6,0,1,0-.6.6A.6.6,0,0,0,1162.671,1263.891Z" transform="translate(-1092.938 -1209.524)" fill="none" stroke="#fff" stroke-miterlimit="10" stroke-width="1.5"/>
        <path id="Path_9583" data-name="Path 9583" d="M1158.906,1217.663h4.476" transform="translate(-1092.013 -1193.04)" fill="none" stroke="#fff" stroke-linecap="round" stroke-linejoin="round" stroke-width="1.5"/>
      </g>
      <circle id="Ellipse_11" data-name="Ellipse 11" cx="10.73" cy="10.73" r="10.73" transform="matrix(0.974, -0.228, 0.228, 0.974, 1075.844, 1190.499)" stroke-width="1.5" stroke="#fff" stroke-linecap="round" stroke-linejoin="round" fill="#d51820"/>
      <g id="Group_4879" data-name="Group 4879" transform="translate(1068.643 1178.402)">
        <g id="Group_4878" data-name="Group 4878" transform="translate(0 0)">
          <circle id="Ellipse_12" data-name="Ellipse 12" cx="15.343" cy="15.343" r="15.343" transform="matrix(0.388, -0.922, 0.922, 0.388, 0, 28.277)" stroke-dasharray="0.01 8.078" stroke="#fff" stroke-linecap="round" stroke-linejoin="round" stroke-width="1.5" fill="none"/>
        </g>
      </g>
      <g id="Group_4880" data-name="Group 4880" transform="translate(1088.739 1192.776)">
        <line id="Line_26" data-name="Line 26" y1="5.723" stroke-width="1.5" stroke="#fff" stroke-linecap="round" stroke-linejoin="round" fill="none"/>
        <line id="Line_27" data-name="Line 27" x2="3.962" y2="3.962" transform="translate(0 5.723)" fill="none" stroke="#fff" stroke-linecap="round" stroke-linejoin="round" stroke-width="1.5"/>
      </g>
    </g>
  </g>
  <g id="Icon07" transform="translate(600 -12)">
    <rect id="Rectangle_1-7" data-name="Rectangle 1" width="100" height="80" transform="translate(0 12)" fill="#eee" opacity="0"/>
    <g id="icon_1-2" data-name="icon_1" transform="translate(-806.167 -1598)">
      <path id="Path_10335" data-name="Path 10335" d="M865.661,1645.253a11.7,11.7,0,1,1-3.225,0H836.307v27.473h55.482v-27.473Z" transform="translate(-7.082 -7.119)" fill="#d51820" stroke="#fff" stroke-width="1.5"/>
      <path id="Path_10336" data-name="Path 10336" d="M889.635,1686.564v5.5h-46.8v-5.5" transform="translate(-9.268 -20.958)" fill="none" stroke="#fff" stroke-miterlimit="10" stroke-width="1.5"/>
      <path id="Path_10337" data-name="Path 10337" d="M887.691,1693.465v5.623H848.726v-5.623" transform="translate(-11.242 -23.269)" fill="none" stroke="#fff" stroke-miterlimit="10" stroke-width="1.5"/>
      <path id="Path_10338" data-name="Path 10338" d="M854.684,1665.078a2.97,2.97,0,1,0-2.97,2.97A2.971,2.971,0,0,0,854.684,1665.078Z" transform="translate(-14.181 -15.144)" fill="none" stroke="#fff" stroke-miterlimit="10" stroke-width="1.5"/>
      <path id="Path_10341" data-name="Path 10341" d="M854.684,1665.078a2.97,2.97,0,1,0-2.97,2.97A2.971,2.971,0,0,0,854.684,1665.078Z" transform="translate(24.819 -15.144)" fill="none" stroke="#fff" stroke-miterlimit="10" stroke-width="1.5"/>
      <path id="Path_10339" data-name="Path 10339" d="M829.225,1652.267h-8.044a6.014,6.014,0,0,1-6.014-6.014v-16.239a6.014,6.014,0,0,1,6.014-6.014h71.571a6.014,6.014,0,0,1,6.014,6.014v16.239a6.014,6.014,0,0,1-6.014,6.014h-8.043" fill="none" stroke="#fff" stroke-miterlimit="10" stroke-width="1.5"/>
      <line id="Line_85" data-name="Line 85" x2="65.423" transform="translate(824.255 1638.134)" fill="none" stroke="#fff" stroke-linecap="round" stroke-miterlimit="10" stroke-width="1.5"/>
      <path id="Path_10340" data-name="Path 10340" d="M836.307,1645.253v27.473H891.79v-27.473" transform="translate(-7.082 -7.119)" fill="none" stroke="#fff" stroke-miterlimit="10" stroke-width="1.5"/>
      <text id="_0" data-name="0" transform="translate(851.891 1656.389)" fill="#fff" font-size="20" font-family="SegoeUI, Segoe UI"><tspan x="0" y="0">0</tspan></text>
    </g>
  </g>
  <g id="Icon08" transform="translate(700 -12)">
    <rect id="Rectangle_1-8" data-name="Rectangle 1" width="100" height="80" transform="translate(0 12)" fill="#eee" opacity="0"/>
    <g id="icon2" transform="translate(-3056.113 -1223.542)">
      <g id="Group_8310" data-name="Group 8310" transform="translate(3071.113 1245.542)">
        <path id="Path_10342" data-name="Path 10342" d="M3112.187,1301.1l-6.479,32.261h17.717l-6.479-32.261" transform="translate(-3088.465 -1273.408)" fill="none" stroke="#fff" stroke-miterlimit="10" stroke-width="1.5"/>
        <path id="Path_10343" data-name="Path 10343" d="M3118.706,1290.939l4.76-1.049v5.587h-4.76Z" transform="translate(-3094.985 -1267.786)" fill="none" stroke="#fff" stroke-miterlimit="10" stroke-width="1.5"/>
        <path id="Rectangle_1726" data-name="Rectangle 1726" d="M0,0H45.318a2.346,2.346,0,0,1,2.346,2.346v0a2.347,2.347,0,0,1-2.347,2.347H0a0,0,0,0,1,0,0V0A0,0,0,0,1,0,0Z" transform="matrix(-0.974, 0.226, -0.226, -0.974, 47.489, 17.628)" fill="none" stroke="#fff" stroke-miterlimit="10" stroke-width="1.5"/>
        <g id="Group_8309" data-name="Group 8309" transform="translate(46.426)">
          <path id="Path_10344" data-name="Path 10344" d="M3164.258,1258.6l2.062-13.056c4.132,2.188,7.635,6.907,9.026,12.888s.327,11.762-2.416,15.548l-7.61-10.808Z" transform="translate(-3164.258 -1245.542)" fill="none" stroke="#fff" stroke-miterlimit="10" stroke-width="1.5"/>
        </g>
        <line id="Line_86" data-name="Line 86" x1="4.91" y2="0.49" transform="translate(47.489 17.138)" fill="none" stroke="#fff" stroke-miterlimit="10" stroke-width="1.5"/>
        <line id="Line_87" data-name="Line 87" x1="4.626" y2="1.774" transform="translate(46.426 11.282)" fill="none" stroke="#fff" stroke-miterlimit="10" stroke-width="1.5"/>
        <line id="Line_88" data-name="Line 88" y2="19.528" transform="translate(55.098 28.436)" fill="none" stroke="#fff" stroke-miterlimit="10" stroke-width="1.5"/>
        <line id="Line_89" data-name="Line 89" y2="32.261" transform="translate(5.123 27.692)" fill="none" stroke="#fff" stroke-miterlimit="10" stroke-width="1.5"/>
        <path id="Path_10345" data-name="Path 10345" d="M3126.43,1340.8l-14.731-14.856,9.768-10.014" transform="translate(-3091.47 -1280.846)" fill="none" stroke="#fff" stroke-linejoin="round" stroke-width="1.5"/>
        <path id="Path_10346" data-name="Path 10346" d="M3105.708,1340.8l14.744-14.856-9.759-10.014" transform="translate(-3088.465 -1280.846)" fill="none" stroke="#fff" stroke-linejoin="round" stroke-width="1.5"/>
        <path id="Path_10347" data-name="Path 10347" d="M3170.97,1259.656a21.9,21.9,0,0,0-4.242-8.854l.831-5.26c4.132,2.188,7.635,6.907,9.026,12.888s.327,11.762-2.416,15.548l-3.119-4.43A21.868,21.868,0,0,0,3170.97,1259.656Z" transform="translate(-3119.071 -1245.542)" fill="none" stroke="#fff" stroke-miterlimit="10" stroke-width="1.5"/>
        <rect id="Rectangle_1727" data-name="Rectangle 1727" width="6.523" height="11.988" transform="translate(8.332 59.952) rotate(180)" fill="#d51820" stroke="#fff" stroke-width="1.5"/>
        <rect id="Rectangle_1728" data-name="Rectangle 1728" width="6.523" height="11.988" transform="translate(8.332 59.952) rotate(180)" fill="none" stroke="#fff" stroke-miterlimit="10" stroke-width="1.5"/>
      </g>
      <g id="Group_8311" data-name="Group 8311" transform="translate(3110.545 1290.082)">
        <path id="Path_10353" data-name="Path 10353" d="M3173.953,1340.173l.824-3.042a.1.1,0,0,1,.094-.07l5.622.059a.1.1,0,0,1,.092.073l.76,3.058Z" transform="translate(-3162.127 -1335.985)" fill="#d51820" stroke="#d51820" stroke-width="1.5"/>
        <path id="Path_10354" data-name="Path 10354" d="M3163.405,1350.625l.825-3.042a.1.1,0,0,1,.093-.071l5.622.06a.1.1,0,0,1,.092.072l.759,3.059Z" transform="translate(-3156.837 -1341.227)" fill="#d51820" stroke="#d51820" stroke-width="1.5"/>
        <path id="Path_10355" data-name="Path 10355" d="M3184.277,1350.846l.824-3.042a.1.1,0,0,1,.094-.071l5.622.059a.1.1,0,0,1,.092.073l.76,3.059Z" transform="translate(-3167.306 -1341.338)" fill="#d51820" stroke="#d51820" stroke-width="1.5"/>
        <path id="Path_10356" data-name="Path 10356" d="M3152.858,1361.064l.824-3.042a.1.1,0,0,1,.094-.071l5.622.059a.1.1,0,0,1,.092.073l.76,3.059Z" transform="translate(-3151.547 -1346.463)" fill="#d51820" stroke="#d51820" stroke-width="1.5"/>
        <path id="Path_10357" data-name="Path 10357" d="M3173.73,1361.285l.824-3.042a.1.1,0,0,1,.093-.071l5.622.059a.1.1,0,0,1,.092.073l.759,3.058Z" transform="translate(-3162.016 -1346.574)" fill="#d51820" stroke="#d51820" stroke-width="1.5"/>
        <path id="Path_10358" data-name="Path 10358" d="M3194.6,1361.5l.824-3.042a.1.1,0,0,1,.094-.071l5.621.06a.1.1,0,0,1,.092.072l.76,3.059Z" transform="translate(-3172.484 -1346.684)" fill="#d51820" stroke="#d51820" stroke-width="1.5"/>
        <path id="Path_10348" data-name="Path 10348" d="M3170.789,1350.7l-1.333-4.809a.669.669,0,0,0-.631-.47l-2.454-.026-3.925-.042a.669.669,0,0,0-.642.457l-1.41,4.78" transform="translate(-3155.326 -1340.146)" fill="none" stroke="#fff" stroke-miterlimit="10" stroke-width="1.5"/>
        <path id="Path_10349" data-name="Path 10349" d="M3191.6,1350.922l-1.285-4.808a.669.669,0,0,0-.631-.47l-2.455-.026-3.925-.042a.669.669,0,0,0-.641.457l-1.418,4.78" transform="translate(-3165.788 -1340.256)" fill="none" stroke="#fff" stroke-miterlimit="10" stroke-width="1.5"/>
        <path id="Path_10350" data-name="Path 10350" d="M3159.1,1356.331a.668.668,0,0,0-.631-.47l-2.454-.026-3.925-.041a.669.669,0,0,0-.642.456l-1.2,4.274a.394.394,0,0,0,.37.519l5.34.057,3.87.041a.4.4,0,0,0,.381-.512Z" transform="translate(-3150.228 -1345.381)" fill="none" stroke="#fff" stroke-miterlimit="10" stroke-width="1.5"/>
        <path id="Path_10351" data-name="Path 10351" d="M3179.971,1356.552a.668.668,0,0,0-.631-.47l-2.454-.026-3.925-.042a.666.666,0,0,0-.641.457l-1.2,4.273a.4.4,0,0,0,.371.52l5.34.056,3.87.041a.4.4,0,0,0,.381-.512Z" transform="translate(-3160.696 -1345.492)" fill="none" stroke="#fff" stroke-miterlimit="10" stroke-width="1.5"/>
        <path id="Path_10352" data-name="Path 10352" d="M3181.317,1340.256l-1.275-4.815a.669.669,0,0,0-.632-.47l-2.454-.026-3.925-.042a.668.668,0,0,0-.641.457l-1.372,4.787" transform="translate(-3160.656 -1334.903)" fill="none" stroke="#fff" stroke-miterlimit="10" stroke-width="1.5"/>
        <path id="Path_10359" data-name="Path 10359" d="M3200.842,1356.773a.669.669,0,0,0-.631-.47l-2.454-.026-3.925-.041a.669.669,0,0,0-.641.457l-1.2,4.273a.4.4,0,0,0,.371.52l5.34.057,3.87.041a.4.4,0,0,0,.381-.512Z" transform="translate(-3171.164 -1345.602)" fill="none" stroke="#fff" stroke-miterlimit="10" stroke-width="1.5"/>
      </g>
    </g>
  </g>
  <g id="Icon09" transform="translate(800 -12)">
    <rect id="Rectangle_1-9" data-name="Rectangle 1" width="100" height="80" transform="translate(0 12)" fill="#eee" opacity="0"/>
    <g id="icon3" transform="translate(24.512 23)">
      <g id="icon_arrow" transform="translate(-506.894 -418.709)" fill="#d51820">
        <path d="M 537.8051147460938 471.3338012695312 L 527.6387329101562 471.3338012695312 C 526.8524169921875 471.3338012695312 526.1365966796875 470.9012451171875 525.7705688476562 470.2049255371094 C 525.404541015625 469.508544921875 525.4541625976562 468.6735534667969 525.9000244140625 468.0257873535156 L 530.982177734375 460.6409606933594 C 531.37646484375 460.0679321289062 532.0267944335938 459.7257995605469 532.7217407226562 459.7257995605469 C 533.417236328125 459.7257995605469 534.0672607421875 460.0683288574219 534.4605102539062 460.64208984375 L 539.5438232421875 468.0257568359375 C 539.9898071289062 468.6734313964844 540.0394287109375 469.5084228515625 539.6734619140625 470.2047729492188 C 539.3074340820312 470.9011840820312 538.591552734375 471.3338012695312 537.8051147460938 471.3338012695312 Z" stroke="none"/>
        <path d="M 537.8051147460938 470.5838012695312 C 538.9008178710938 470.5838012695312 539.5475463867188 469.3536682128906 538.9260864257812 468.4510498046875 L 533.8419189453125 461.0661315917969 C 533.5721435546875 460.6725769042969 533.1470336914062 460.4757995605469 532.7217407226562 460.4757995605469 C 532.29638671875 460.4757995605469 531.870849609375 460.6725769042969 531.6000366210938 461.0661315917969 L 526.517822265625 468.4510498046875 C 525.896484375 469.3536682128906 526.5430908203125 470.5838012695312 527.6387329101562 470.5838012695312 L 537.8051147460938 470.5838012695312 M 537.8051147460938 472.0838012695312 L 527.6387329101562 472.0838012695312 C 526.5729370117188 472.0838012695312 525.6027221679688 471.49755859375 525.106689453125 470.5538940429688 C 524.610595703125 469.6101379394531 524.6779174804688 468.4784851074219 525.2822875976562 467.6005249023438 L 530.3643798828125 460.2157592773438 C 530.8985595703125 459.4393615722656 531.7798461914062 458.9757995605469 532.7217407226562 458.9757995605469 C 533.6646728515625 458.9757995605469 534.5459594726562 459.440185546875 535.0791625976562 460.2180480957031 L 540.16162109375 467.6004638671875 C 540.7659912109375 468.4783325195312 540.8333740234375 469.6099548339844 540.3373413085938 470.5537109375 C 539.84130859375 471.4974975585938 538.8709716796875 472.0838012695312 537.8051147460938 472.0838012695312 Z" stroke="none" fill="#fff"/>
      </g>
      <line id="Line_90" data-name="Line 90" x2="67.28" transform="translate(-7.652 36.693)" fill="none" stroke="#fff" stroke-linecap="round" stroke-width="1.5"/>
      <g id="Rectangle_1730" data-name="Rectangle 1730" transform="translate(40.488 27)" fill="#d51820" stroke="#fff" stroke-width="1.5">
        <rect width="20" height="7" rx="2" stroke="none"/>
        <rect x="0.75" y="0.75" width="18.5" height="5.5" rx="1.25" fill="none"/>
      </g>
      <g id="Rectangle_1732" data-name="Rectangle 1732" transform="translate(40.488 17)" fill="#d51820" stroke="#fff" stroke-width="1.5">
        <rect width="20" height="7" rx="2" stroke="none"/>
        <rect x="0.75" y="0.75" width="18.5" height="5.5" rx="1.25" fill="none"/>
      </g>
      <g id="Rectangle_1733" data-name="Rectangle 1733" transform="translate(40.488 7)" fill="#d51820" stroke="#fff" stroke-width="1.5">
        <rect width="20" height="8" rx="2" stroke="none"/>
        <rect x="0.75" y="0.75" width="18.5" height="6.5" rx="1.25" fill="none"/>
      </g>
      <g id="Rectangle_1731" data-name="Rectangle 1731" transform="translate(-8.512 27)" fill="#d51820" stroke="#fff" stroke-width="1.5">
        <rect width="20" height="7" rx="2" stroke="none"/>
        <rect x="0.75" y="0.75" width="18.5" height="5.5" rx="1.25" fill="none"/>
      </g>
    </g>
  </g>
  <g id="Icon10" transform="translate(900 -12)">
    <rect id="Rectangle_1-10" data-name="Rectangle 1" width="100" height="80" transform="translate(0 12)" fill="#eee" opacity="0"/>
    <g id="icon4" transform="translate(-2076.921 -656.145)">
      <g id="Group_8312" data-name="Group 8312" transform="translate(2097.921 681.145)">
        <path id="Path_10360" data-name="Path 10360" d="M2097.926,739.654a7.085,7.085,0,0,0,5.11,6.8V732.843A7.092,7.092,0,0,0,2097.926,739.654Z" transform="translate(-2097.924 -708.448)" fill="#d51820" stroke="#fff" stroke-width="1.5"/>
        <path id="Path_10361" data-name="Path 10361" d="M2216.711,739.654a7.085,7.085,0,0,1-5.109,6.8V732.843A7.092,7.092,0,0,1,2216.711,739.654Z" transform="translate(-2157.958 -708.448)" fill="#d51820" stroke="#fff" stroke-width="1.5"/>
        <path id="Path_10362" data-name="Path 10362" d="M2108.762,705.408a24.263,24.263,0,1,1,48.526,0" transform="translate(-2103.646 -681.145)" fill="none" stroke="#fff" stroke-miterlimit="10" stroke-width="1.5"/>
        <path id="Rectangle_1734" data-name="Rectangle 1734" d="M0,0H1.681A7.088,7.088,0,0,1,8.769,7.088v0a7.088,7.088,0,0,1-7.088,7.088H0a0,0,0,0,1,0,0V0A0,0,0,0,1,0,0Z" transform="translate(49.986 24.115)" fill="none" stroke="#fff" stroke-miterlimit="10" stroke-width="1.5"/>
        <rect id="Rectangle_1735" data-name="Rectangle 1735" width="4.293" height="19.767" rx="2.146" transform="translate(45.693 21.32)" fill="none" stroke="#fff" stroke-miterlimit="10" stroke-width="1.5"/>
        <rect id="Rectangle_1736" data-name="Rectangle 1736" width="4.293" height="19.767" rx="2.146" transform="translate(13.062 41.087) rotate(180)" fill="none" stroke="#fff" stroke-miterlimit="10" stroke-width="1.5"/>
        <path id="Rectangle_1737" data-name="Rectangle 1737" d="M0,0H1.681A7.088,7.088,0,0,1,8.769,7.088v0a7.088,7.088,0,0,1-7.088,7.088H0a0,0,0,0,1,0,0V0A0,0,0,0,1,0,0Z" transform="translate(8.769 38.292) rotate(180)" fill="none" stroke="#fff" stroke-miterlimit="10" stroke-width="1.5"/>
        <path id="Path_10363" data-name="Path 10363" d="M2171.429,777.592h2.542a12.757,12.757,0,0,0,12.757-12.757v-2.542" transform="translate(-2136.742 -724.001)" fill="none" stroke="#fff" stroke-miterlimit="10" stroke-width="1.5"/>
        <rect id="Rectangle_1738" data-name="Rectangle 1738" width="7.219" height="4.497" rx="2.249" transform="translate(29.849 49.093)" fill="none" stroke="#fff" stroke-miterlimit="10" stroke-width="1.5"/>
      </g>
      <g id="Group_8313" data-name="Group 8313" transform="translate(2121.178 712.349)">
        <line id="Line_91" data-name="Line 91" x2="1.563" fill="none" stroke="#fff" stroke-miterlimit="10" stroke-width="1.5"/>
        <line id="Line_92" data-name="Line 92" x2="1.563" transform="translate(5.34)" fill="none" stroke="#fff" stroke-miterlimit="10" stroke-width="1.5"/>
        <line id="Line_93" data-name="Line 93" x2="1.563" transform="translate(10.679)" fill="none" stroke="#fff" stroke-miterlimit="10" stroke-width="1.5"/>
      </g>
    </g>
  </g>
  <g id="Icon11" transform="translate(1000 -12)">
    <rect id="Rectangle_1-11" data-name="Rectangle 1" width="100" height="80" transform="translate(0 12)" fill="#eee" opacity="0"/>
    <g id="icon5" transform="translate(-1358.404 -2193.185)">
      <g id="Group_8324" data-name="Group 8324" transform="translate(1372.404 2222.185)">
        <g id="Group_8320" data-name="Group 8320" transform="translate(19.928)">
          <path id="Path_10366" data-name="Path 10366" d="M0,4.221H21.4l6.346,5.923-6.655,6.722H0Z" transform="translate(0 0.384)" fill="#d51820"/>
          <line id="Line_101" data-name="Line 101" x2="20.867" transform="translate(0 4.606)" fill="none" stroke="#fff" stroke-linecap="round" stroke-miterlimit="10" stroke-width="1.5"/>
          <line id="Line_102" data-name="Line 102" x1="20.867" transform="translate(0 16.811)" fill="none" stroke="#fff" stroke-linecap="round" stroke-miterlimit="10" stroke-width="1.5"/>
          <path id="Path_10365" data-name="Path 10365" d="M1426.123,2243.6l10.708-10.708-10.708-10.708" transform="translate(-1408.977 -2222.185)" fill="none" stroke="#fff" stroke-linecap="round" stroke-linejoin="round" stroke-miterlimit="10" stroke-width="1.5"/>
        </g>
        <g id="Group_8323" data-name="Group 8323" transform="translate(0 5.761)">
          <g id="Group_8321" data-name="Group 8321" transform="translate(11.954)">
            <line id="Line_103" data-name="Line 103" x2="2.391" transform="translate(0 9.895)" fill="none" stroke="#fff" stroke-linecap="round" stroke-linejoin="round" stroke-width="1.5"/>
            <line id="Line_104" data-name="Line 104" x2="2.391" stroke-width="1.5" stroke="#fff" stroke-linecap="round" stroke-linejoin="round" fill="none"/>
          </g>
          <line id="Line_105" data-name="Line 105" x2="2.391" transform="translate(5.977 4.948)" fill="none" stroke="#fff" stroke-linecap="round" stroke-linejoin="round" stroke-width="1.5"/>
          <g id="Group_8322" data-name="Group 8322">
            <line id="Line_106" data-name="Line 106" x1="2.391" transform="translate(0 9.895)" fill="none" stroke="#fff" stroke-linecap="round" stroke-linejoin="round" stroke-width="1.5"/>
            <line id="Line_107" data-name="Line 107" x1="2.391" stroke-width="1.5" stroke="#fff" stroke-linecap="round" stroke-linejoin="round" fill="none"/>
          </g>
        </g>
      </g>
      <g id="Group_8326" data-name="Group 8326" transform="translate(1444.188 2267.603) rotate(180)">
        <g id="Group_8320-2" data-name="Group 8320" transform="translate(19.928)">
          <path id="Path_10366-2" data-name="Path 10366" d="M0,0H21.4l6.346,5.923-6.655,6.722H0Z" transform="translate(0 4.606)" fill="#d51820"/>
          <line id="Line_101-2" data-name="Line 101" x2="20.867" transform="translate(0 4.606)" fill="none" stroke="#fff" stroke-linecap="round" stroke-miterlimit="10" stroke-width="1.5"/>
          <line id="Line_102-2" data-name="Line 102" x1="20.867" transform="translate(0 16.811)" fill="none" stroke="#fff" stroke-linecap="round" stroke-miterlimit="10" stroke-width="1.5"/>
          <path id="Path_10365-2" data-name="Path 10365" d="M0,21.417,10.708,10.708,0,0" transform="translate(17.145)" fill="none" stroke="#fff" stroke-linecap="round" stroke-linejoin="round" stroke-miterlimit="10" stroke-width="1.5"/>
        </g>
        <g id="Group_8323-2" data-name="Group 8323" transform="translate(0 5.761)">
          <g id="Group_8321-2" data-name="Group 8321" transform="translate(11.954)">
            <line id="Line_103-2" data-name="Line 103" x2="2.391" transform="translate(0 9.895)" fill="none" stroke="#fff" stroke-linecap="round" stroke-linejoin="round" stroke-width="1.5"/>
            <line id="Line_104-2" data-name="Line 104" x2="2.391" stroke-width="1.5" stroke="#fff" stroke-linecap="round" stroke-linejoin="round" fill="none"/>
          </g>
          <line id="Line_105-2" data-name="Line 105" x2="2.391" transform="translate(5.977 4.948)" fill="none" stroke="#fff" stroke-linecap="round" stroke-linejoin="round" stroke-width="1.5"/>
          <g id="Group_8322-2" data-name="Group 8322">
            <line id="Line_106-2" data-name="Line 106" x1="2.391" transform="translate(0 9.895)" fill="none" stroke="#fff" stroke-linecap="round" stroke-linejoin="round" stroke-width="1.5"/>
            <line id="Line_107-2" data-name="Line 107" x1="2.391" stroke-width="1.5" stroke="#fff" stroke-linecap="round" stroke-linejoin="round" fill="none"/>
          </g>
        </g>
      </g>
    </g>
  </g>
  <g id="Icon12" transform="translate(1100 -12)">
    <rect id="Rectangle_1-12" data-name="Rectangle 1" width="100" height="80" transform="translate(0 12)" fill="#eee" opacity="0"/>
    <g id="icon-5" data-name="icon" transform="translate(-1044.174 -1155.855)">
      <g id="Group_4877-2" data-name="Group 4877" transform="translate(1054.174 1178.855)">
        <g id="Group_4876-2" data-name="Group 4876" transform="translate(0 0)">
          <path id="Path_9578-2" data-name="Path 9578" d="M1100.035,1252.986h10.081a20.137,20.137,0,0,0,.27,5.1,7.079,7.079,0,0,0,3.924,4.741h0c.59.3.314,1.015-.393,1.015h-27.765c-.707,0-.982-.713-.392-1.015h0a7.081,7.081,0,0,0,3.924-4.741,20.131,20.131,0,0,0,.27-5.1Z" transform="translate(-1065.47 -1205.802)" fill="none" stroke="#fff" stroke-linecap="round" stroke-linejoin="round" stroke-width="1.5"/>
          <circle id="Ellipse_10-2" data-name="Ellipse 10" cx="0.675" cy="0.675" r="0.675" transform="translate(33.891 42.36)" stroke-width="1.5" stroke="#fff" stroke-linecap="round" stroke-linejoin="round" fill="none"/>
          <path id="Path_9579-2" data-name="Path 9579" d="M1112.014,1248.292h-54.431a3.41,3.41,0,0,1-3.41-3.41v-4.889h13.371" transform="translate(-1054.174 -1201.108)" fill="none" stroke="#fff" stroke-linecap="round" stroke-linejoin="round" stroke-width="1.5"/>
          <path id="Path_9580-2" data-name="Path 9580" d="M1111.966,1218h-57.792v-35.189a3.7,3.7,0,0,1,3.7-3.7h61.737a3.7,3.7,0,0,1,3.7,3.7v17.165" transform="translate(-1054.174 -1179.112)" fill="none" stroke="#fff" stroke-linecap="round" stroke-linejoin="round" stroke-width="1.5"/>
        </g>
        <line id="Line_25-2" data-name="Line 25" x1="18.051" transform="translate(60.106 50.621)" fill="none" stroke="#fff" stroke-miterlimit="10" stroke-width="1.5"/>
        <path id="Path_9581-2" data-name="Path 9581" d="M1165.581,1248.957h-19.117a1.733,1.733,0,0,1-1.733-1.732v-33.717a1.733,1.733,0,0,1,1.733-1.733h19.117a1.733,1.733,0,0,1,1.733,1.733v33.717A1.733,1.733,0,0,1,1165.581,1248.957Z" transform="translate(-1086.891 -1190.913)" fill="none" stroke="#fff" stroke-miterlimit="10" stroke-width="1.5"/>
        <path id="Path_9582-2" data-name="Path 9582" d="M1162.671,1263.891a.6.6,0,1,0-.6.6A.6.6,0,0,0,1162.671,1263.891Z" transform="translate(-1092.938 -1209.524)" fill="none" stroke="#fff" stroke-miterlimit="10" stroke-width="1.5"/>
        <path id="Path_9583-2" data-name="Path 9583" d="M1158.906,1217.663h4.476" transform="translate(-1092.013 -1193.04)" fill="none" stroke="#fff" stroke-linecap="round" stroke-linejoin="round" stroke-width="1.5"/>
      </g>
      <g id="Group_8327" data-name="Group 8327" transform="translate(-266.094 -1215.518)">
        <line id="Line_108" data-name="Line 108" y1="11.482" x2="8.681" transform="translate(1364.773 2407.161)" fill="none" stroke="#fff" stroke-miterlimit="10" stroke-width="1.5"/>
        <line id="Line_109" data-name="Line 109" x2="3.492" y2="4.052" transform="translate(1357.626 2414.641)" fill="none" stroke="#fff" stroke-miterlimit="10" stroke-width="1.5"/>
        <line id="Line_110" data-name="Line 110" y1="4.47" x2="3.909" transform="translate(1349.975 2414.641)" fill="none" stroke="#fff" stroke-miterlimit="10" stroke-width="1.5"/>
        <line id="Line_111" data-name="Line 111" x2="3.342" y2="4.328" transform="translate(1343.107 2414.727)" fill="none" stroke="#fff" stroke-miterlimit="10" stroke-width="1.5"/>
        <line id="Line_112" data-name="Line 112" y1="4.62" x2="3.489" transform="translate(1335.826 2414.594)" fill="none" stroke="#fff" stroke-miterlimit="10" stroke-width="1.5"/>
        <circle id="Ellipse_279" data-name="Ellipse 279" cx="2.807" cy="2.807" r="2.807" transform="translate(1338.369 2410.155)" fill="#d51820" stroke="#fff" stroke-miterlimit="10" stroke-width="1.5"/>
        <circle id="Ellipse_280" data-name="Ellipse 280" cx="2.807" cy="2.807" r="2.807" transform="translate(1345.437 2418.16)" fill="#d51820" stroke="#fff" stroke-miterlimit="10" stroke-width="1.5"/>
        <circle id="Ellipse_281" data-name="Ellipse 281" cx="2.807" cy="2.807" r="2.807" transform="translate(1352.979 2410.155)" fill="#d51820" stroke="#fff" stroke-miterlimit="10" stroke-width="1.5"/>
        <circle id="Ellipse_282" data-name="Ellipse 282" cx="2.807" cy="2.807" r="2.807" transform="translate(1360.139 2417.585)" fill="#d51820" stroke="#fff" stroke-miterlimit="10" stroke-width="1.5"/>
        <circle id="Ellipse_283" data-name="Ellipse 283" cx="2.807" cy="2.807" r="2.807" transform="translate(1372.433 2402.569)" fill="#d51820" stroke="#fff" stroke-miterlimit="10" stroke-width="1.5"/>
        <circle id="Ellipse_284" data-name="Ellipse 284" cx="2.807" cy="2.807" r="2.807" transform="translate(1331.267 2418.16)" fill="#d51820" stroke="#fff" stroke-miterlimit="10" stroke-width="1.5"/>
      </g>
    </g>
  </g>
</svg>
