<svg id="icons_spite_100_site_features" xmlns="http://www.w3.org/2000/svg" width="600" height="80" viewBox="0 0 600 80">
  <g id="Icon01" transform="translate(0 -12)">
    <rect id="Rectangle_1" data-name="Rectangle 1" width="100" height="80" transform="translate(0 12)" fill="#eee" opacity="0"/>
    <g id="icon_1" transform="translate(-1926.883 -1594.917)">
      <g id="icon_R" transform="translate(1995.45 1629.293)">
        <line id="Line_4" data-name="Line 4" y1="3.822" x2="4.888" transform="translate(0 17.095)" fill="none" stroke="#3e3b44" stroke-linecap="round" stroke-linejoin="round" stroke-width="1.5"/>
        <line id="Line_5" data-name="Line 5" x1="6.103" y1="6.382" transform="translate(4.888 17.095)" fill="none" stroke="#3e3b44" stroke-linecap="round" stroke-linejoin="round" stroke-width="1.5"/>
        <path id="Path_54" data-name="Path 54" d="M2050.089,1677.733c0-.839-1.734-16.516-1.734-16.516l-8.9-5.823" transform="translate(-2022.36 -1638.3)" fill="none" stroke="#3e3b44" stroke-linejoin="round" stroke-width="1.5"/>
        <path id="Path_55" data-name="Path 55" d="M2038.164,1655.4l-6.1,6.382v12.357" transform="translate(-2021.071 -1638.3)" fill="none" stroke="#3e3b44" stroke-linecap="round" stroke-linejoin="round" stroke-width="1.5"/>
        <ellipse id="Ellipse_1" data-name="Ellipse 1" cx="6.476" cy="7.95" rx="6.476" ry="7.95" transform="translate(4.515)" fill="none" stroke="#3e3b44" stroke-linecap="round" stroke-linejoin="round" stroke-width="1.5"/>
      </g>
      <g id="icon_L" transform="translate(1929.883 1629.293)">
        <line id="Line_4-2" data-name="Line 4" x1="4.888" y1="3.822" transform="translate(22.841 17.095)" fill="none" stroke="#3e3b44" stroke-linecap="round" stroke-linejoin="round" stroke-width="1.5"/>
        <line id="Line_5-2" data-name="Line 5" y1="6.382" x2="6.102" transform="translate(16.738 17.095)" fill="none" stroke="#3e3b44" stroke-linecap="round" stroke-linejoin="round" stroke-width="1.5"/>
        <path id="Path_54-2" data-name="Path 54" d="M2039.453,1677.733c0-.839,1.734-16.516,1.734-16.516l8.9-5.823" transform="translate(-2039.453 -1638.3)" fill="none" stroke="#3e3b44" stroke-linejoin="round" stroke-width="1.5"/>
        <path id="Path_55-2" data-name="Path 55" d="M2032.062,1655.4l6.1,6.382v12.357" transform="translate(-2021.426 -1638.3)" fill="none" stroke="#3e3b44" stroke-linecap="round" stroke-linejoin="round" stroke-width="1.5"/>
        <ellipse id="Ellipse_1-2" data-name="Ellipse 1" cx="6.476" cy="7.95" rx="6.476" ry="7.95" transform="translate(10.263)" fill="none" stroke="#3e3b44" stroke-linecap="round" stroke-linejoin="round" stroke-width="1.5"/>
      </g>
      <g id="İcon_big" transform="translate(1952.125 1618.917)">
        <path id="Path_46" data-name="Path 46" d="M2011.653,1681.357l-1.833-20.908-13.245-8.377-1.281,15.334-3.668-2.528-2.3,4.473,3.165,12Z" transform="translate(-1963.339 -1626.351)" fill="#5a9fff"/>
        <path id="Path_47" data-name="Path 47" d="M1957.848,1681.357l1.833-20.908,13.245-8.377,1.282,15.334,3.668-2.528,2.3,4.473-3.166,12Z" transform="translate(-1957.848 -1626.351)" fill="#5a9fff"/>
        <path id="Path_48" data-name="Path 48" d="M1957.848,1681.3c0-1.249,1.833-20.907,1.833-20.907l13.245-8.663" transform="translate(-1957.848 -1626.291)" fill="none" stroke="#3e3b44" stroke-linejoin="round" stroke-width="1.5"/>
        <path id="Path_49" data-name="Path 49" d="M1976.111,1651.726l1.333,16.243,7.747-6.747Z" transform="translate(-1961.033 -1626.291)" fill="none" stroke="#3e3b44" stroke-linecap="round" stroke-linejoin="round" stroke-width="1.5"/>
        <line id="Line_1" data-name="Line 1" x1="3.165" y2="12.328" transform="translate(19.159 42.678)" fill="none" stroke="#3e3b44" stroke-linecap="round" stroke-linejoin="round" stroke-width="1.5"/>
        <path id="Path_50" data-name="Path 50" d="M2013.184,1681.3c0-1.249-1.833-20.907-1.833-20.907l-13.244-8.663" transform="translate(-1964.87 -1626.291)" fill="none" stroke="#3e3b44" stroke-linejoin="round" stroke-width="1.5"/>
        <path id="Path_51" data-name="Path 51" d="M1996.188,1651.726l-1.333,16.243-7.747-6.747Z" transform="translate(-1962.951 -1626.291)" fill="none" stroke="#3e3b44" stroke-linecap="round" stroke-linejoin="round" stroke-width="1.5"/>
        <path id="Path_52" data-name="Path 52" d="M1986.236,1663.228l-4.13,3.6,2.3,4.15h3.665l2.3-4.15Z" transform="translate(-1962.079 -1628.297)" fill="none" stroke="#3e3b44" stroke-linecap="round" stroke-linejoin="round" stroke-width="1.5"/>
        <line id="Line_2" data-name="Line 2" x2="3.165" y2="12.328" transform="translate(25.99 42.678)" fill="none" stroke="#3e3b44" stroke-linecap="round" stroke-linejoin="round" stroke-width="1.5"/>
        <line id="Line_3" data-name="Line 3" x2="7.081" transform="translate(33.237 47.204)" fill="none" stroke="#344154" stroke-linecap="round" stroke-linejoin="round" stroke-width="1.5"/>
        <path id="Path_53" data-name="Path 53" d="M1994.708,1632.746c0-6.533-4.314-11.829-9.635-11.829s-9.635,5.3-9.635,11.829,4.314,11.828,9.635,11.828S1994.708,1639.278,1994.708,1632.746Z" transform="translate(-1960.916 -1620.917)" fill="none" stroke="#3e3b44" stroke-linecap="round" stroke-linejoin="round" stroke-width="1.5"/>
      </g>
    </g>
  </g>
  <g id="Icon02" transform="translate(100 -12)">
    <rect id="Rectangle_1-2" data-name="Rectangle 1" width="100" height="80" transform="translate(0 12)" fill="#eee" opacity="0"/>
    <g id="icon_bg" transform="translate(-1313.817 -481.987)">
      <path id="Path_58" data-name="Path 58" d="M1231.508,505.892a2.1,2.1,0,1,0-2.1,2.1A2.1,2.1,0,0,0,1231.508,505.892Z" transform="translate(124.495 5.445)" fill="#5a9fff"/>
      <line id="Line_8" data-name="Line 8" x2="62.94" transform="translate(1331.817 562.244)" fill="none" stroke="#3e3b44" stroke-miterlimit="10" stroke-width="1.5"/>
      <rect id="Rectangle_11" data-name="Rectangle 11" width="8.466" height="27.037" transform="translate(1331.817 531.058)" fill="none" stroke="#3e3b44" stroke-width="1.5"/>
      <rect id="Rectangle_12" data-name="Rectangle 12" width="8.466" height="36.027" transform="translate(1386.533 522.068)" fill="#5a9fff" stroke="#3e3b44" stroke-width="1.5"/>
      <rect id="Rectangle_13" data-name="Rectangle 13" width="8.466" height="36.542" transform="translate(1350.056 521.553)" fill="#5a9fff" stroke="#3e3b44" stroke-width="1.5"/>
      <ellipse id="Ellipse_3" data-name="Ellipse 3" cx="4.864" cy="4.864" rx="4.864" ry="4.864" transform="matrix(0.381, -0.925, 0.925, 0.381, 1347.557, 513.983)" fill="none" stroke="#3e3b44" stroke-miterlimit="10" stroke-width="1.5"/>
      <path id="Path_59" data-name="Path 59" d="M1295.864,506.617a2.1,2.1,0,1,0-2.1,2.1A2.1,2.1,0,0,0,1295.864,506.617Z" transform="translate(97.215 5.138)" fill="#5a9fff"/>
      <ellipse id="Ellipse_4" data-name="Ellipse 4" cx="4.864" cy="4.864" rx="4.864" ry="4.864" transform="matrix(0.987, -0.16, 0.16, 0.987, 1385.404, 507.73)" fill="none" stroke="#3e3b44" stroke-miterlimit="10" stroke-width="1.5"/>
      <rect id="Rectangle_14" data-name="Rectangle 14" width="8.466" height="28.582" transform="translate(1368.294 529.513)" fill="none" stroke="#3e3b44" stroke-width="1.5"/>
      <ellipse id="Ellipse_5" data-name="Ellipse 5" cx="2.924" cy="2.924" rx="2.924" ry="2.924" transform="translate(1369.521 518.959)" fill="none" stroke="#3e3b44" stroke-miterlimit="10" stroke-width="1.5"/>
      <path id="Path_60" data-name="Path 60" d="M1199.549,525.765a2.924,2.924,0,1,0-2.924,2.923A2.924,2.924,0,0,0,1199.549,525.765Z" transform="translate(138.744 -2.629)" fill="none" stroke="#3e3b44" stroke-miterlimit="10" stroke-width="1.5"/>
      <line id="Line_9" data-name="Line 9" y1="7.389" x2="12.167" transform="translate(1337.559 513.815)" fill="none" stroke="#3e3b44" stroke-miterlimit="10" stroke-width="1.5"/>
      <line id="Line_10" data-name="Line 10" x2="11.131" y2="6.985" transform="translate(1358.39 513.227)" fill="none" stroke="#3e3b44" stroke-miterlimit="10" stroke-width="1.5"/>
      <line id="Line_11" data-name="Line 11" y1="6.643" x2="11.581" transform="translate(1375.018 513.851)" fill="none" stroke="#3e3b44" stroke-miterlimit="10" stroke-width="1.5"/>
    </g>
  </g>
  <g id="Icon03" transform="translate(200 -12)">
    <rect id="Rectangle_1-3" data-name="Rectangle 1" width="100" height="80" transform="translate(0 12)" fill="#eee" opacity="0"/>
    <g id="icon" transform="translate(25 21)">
      <g id="Group_4838" data-name="Group 4838" transform="translate(0 13.488)">
        <path id="Path_9555" data-name="Path 9555" d="M8.448,17.214A24.043,24.043,0,0,0,.939,32.926L.8,34.873h0A24.529,24.529,0,0,0,11.229,54.9h0l1.808,1.112h0A24.467,24.467,0,0,0,45.992,21.663s-.556-.834-.7-1.112a11.282,11.282,0,0,0-.834-1.112,24.774,24.774,0,0,0-11.819-8.065,12.8,12.8,0,0,1-1.251-.417,4.917,4.917,0,0,1-.834-.139,14.85,14.85,0,0,0-3.476-.417" transform="translate(-0.8 -10.4)" fill="none" stroke="#3e3b44" stroke-miterlimit="10" stroke-width="1.5"/>
      </g>
      <g id="Group_4839" data-name="Group 4839" transform="translate(4.589 0)">
        <path id="Path_9556" data-name="Path 9556" d="M12.328,16.119a4.73,4.73,0,0,0,1.391.139,6.2,6.2,0,0,0,4.589-2.086A5.829,5.829,0,0,0,19.7,10.279,5.935,5.935,0,0,0,13.718,4.3,6.054,6.054,0,0,0,7.6,10.279,5.952,5.952,0,0,0,12.328,16.119Z" transform="translate(-2.733 0.706)" fill="#5a9fff" stroke="#3e3b44" stroke-miterlimit="10" stroke-width="1.5"/>
        <path id="Path_9557" data-name="Path 9557" d="M30.84,24.534a3.409,3.409,0,0,0-2.225-.834h0a4,4,0,0,0-2.5.973A3.482,3.482,0,0,0,25,27.176a3.628,3.628,0,0,0,1.53,2.92,2.982,2.982,0,0,0,1.669.556h.278a3.443,3.443,0,0,0,3.476-3.476,1.764,1.764,0,0,0-.139-.834A2.377,2.377,0,0,0,30.84,24.534Z" transform="translate(4.062 8.282)" fill="#5a9fff" stroke="#3e3b44" stroke-miterlimit="10" stroke-width="1.5"/>
        <path id="Path_9558" data-name="Path 9558" d="M18.233,30.656A2.091,2.091,0,0,0,16.7,30.1a2.493,2.493,0,0,0-2.5,2.5,2.715,2.715,0,0,0,.139.973,3.283,3.283,0,0,0,1.112,1.251,3.273,3.273,0,0,0,1.112.278h.278a2.547,2.547,0,0,0,2.225-2.5A1.78,1.78,0,0,0,18.233,30.656Z" transform="translate(-0.156 10.781)" fill="#5a9fff" stroke="#3e3b44" stroke-miterlimit="10" stroke-width="1.5"/>
        <path id="Path_9559" data-name="Path 9559" d="M19.487,27.778h0a6.718,6.718,0,0,0-1.669-.278h-.139A5.971,5.971,0,0,0,11.7,33.2v.7c0,.139.139.834.139.834.834,3.337,4.172,8.9,4.867,10.012l.973,1.53.973-1.53c.834-1.391,5.006-8.482,5.006-11.263A5.842,5.842,0,0,0,19.487,27.778Z" transform="translate(-1.132 9.766)" fill="none" stroke="#3e3b44" stroke-miterlimit="10" stroke-width="1.5"/>
        <path id="Path_9560" data-name="Path 9560" d="M32.929,21.934h0a2.444,2.444,0,0,0-1.112-.417,6.3,6.3,0,0,0-2.225-.417A7.122,7.122,0,0,0,22.5,28.192a16.07,16.07,0,0,0,1.53,5.145l.417.834h0c.556,1.112,1.53,3.059,2.642,5.006h0l.139.139A25.656,25.656,0,0,0,28.9,42.1l.834,1.53.834-1.53c.7-1.112,6.257-10.429,6.257-13.905A7.393,7.393,0,0,0,32.929,21.934Z" transform="translate(3.086 7.267)" fill="none" stroke="#3e3b44" stroke-miterlimit="10" stroke-width="1.5"/>
        <path id="Path_9561" data-name="Path 9561" d="M8.133,22.948c2.781,5.562,5.84,10.707,5.979,10.985l.834,1.53.834-1.53c.7-1.112,6.535-10.707,8.9-17.521l.7-2.086a11.23,11.23,0,0,0,.417-2.642A11.008,11.008,0,0,0,14.807.7,10.773,10.773,0,0,0,4.1,11.685c0,1.808.973,5.006,3.059,9.316Z" transform="translate(-4.1 -0.7)" fill="none" stroke="#3e3b44" stroke-miterlimit="10" stroke-width="1.5"/>
      </g>
    </g>
  </g>
  <g id="Icon04" transform="translate(300 -12)">
    <rect id="Rectangle_1-4" data-name="Rectangle 1" width="100" height="80" transform="translate(0 12)" fill="#eee" opacity="0"/>
    <g id="icon-2" data-name="icon" transform="translate(-2467.032 -657.39)">
      <g id="Group_4868" data-name="Group 4868" transform="translate(2495.594 686.71)">
        <circle id="Ellipse_6" data-name="Ellipse 6" cx="16.742" cy="16.742" r="16.742" transform="translate(0 30.934) rotate(-67.5)" fill="none" stroke="#3e3b44" stroke-miterlimit="10" stroke-width="1.5"/>
        <circle id="Ellipse_7" data-name="Ellipse 7" cx="11.486" cy="11.486" r="11.486" transform="translate(10.388 10.388)" fill="#5a9fff" stroke="#3e3b44" stroke-miterlimit="10" stroke-width="1.5"/>
        <path id="Path_9562" data-name="Path 9562" d="M2542.295,725.234v-.221a3.758,3.758,0,0,0-3.092-3.692v-.992h-1.325v.992a3.758,3.758,0,0,0-3.092,3.692,3.9,3.9,0,0,0,2.744,3.6c.228.085.46.161.692.237a9.9,9.9,0,0,1,1.18.442,2.483,2.483,0,0,1,1.569,2.233,2.43,2.43,0,0,1-4.859.049l0-.217h-1.323l0,.224a3.767,3.767,0,0,0,3.092,3.636v.992h1.325v-.992a3.723,3.723,0,0,0,2.236-6.045,4.361,4.361,0,0,0-2.053-1.307c-.184-.065-.373-.126-.562-.188a6.1,6.1,0,0,1-1.782-.795,2.371,2.371,0,0,1-.931-1.868,2.429,2.429,0,1,1,4.859,0v.221Z" transform="translate(-2516.665 -706.395)" fill="#3e3b44"/>
        <line id="Line_12" data-name="Line 12" y2="1.544" transform="translate(21.874 7.034)" fill="none" stroke="#3e3b44" stroke-linecap="round" stroke-linejoin="round" stroke-width="1.5"/>
        <line id="Line_13" data-name="Line 13" x2="0.477" y2="1.469" transform="translate(17.288 7.76)" fill="none" stroke="#3e3b44" stroke-linecap="round" stroke-linejoin="round" stroke-width="1.5"/>
        <line id="Line_14" data-name="Line 14" x2="0.908" y2="1.249" transform="translate(13.151 9.868)" fill="none" stroke="#3e3b44" stroke-linecap="round" stroke-linejoin="round" stroke-width="1.5"/>
        <line id="Line_15" data-name="Line 15" x2="1.249" y2="0.908" transform="translate(9.868 13.151)" fill="none" stroke="#3e3b44" stroke-linecap="round" stroke-linejoin="round" stroke-width="1.5"/>
        <line id="Line_16" data-name="Line 16" x2="1.469" y2="0.477" transform="translate(7.76 17.288)" fill="none" stroke="#3e3b44" stroke-linecap="round" stroke-linejoin="round" stroke-width="1.5"/>
        <line id="Line_17" data-name="Line 17" x2="1.544" transform="translate(7.034 21.874)" fill="none" stroke="#3e3b44" stroke-linecap="round" stroke-linejoin="round" stroke-width="1.5"/>
        <line id="Line_18" data-name="Line 18" x1="1.544" transform="translate(35.17 21.874)" fill="none" stroke="#3e3b44" stroke-linecap="round" stroke-linejoin="round" stroke-width="1.5"/>
        <line id="Line_19" data-name="Line 19" x1="1.469" y2="0.477" transform="translate(34.519 17.288)" fill="none" stroke="#3e3b44" stroke-linecap="round" stroke-linejoin="round" stroke-width="1.5"/>
        <line id="Line_20" data-name="Line 20" x1="1.249" y2="0.908" transform="translate(32.631 13.151)" fill="none" stroke="#3e3b44" stroke-linecap="round" stroke-linejoin="round" stroke-width="1.5"/>
        <line id="Line_21" data-name="Line 21" x1="0.908" y2="1.249" transform="translate(29.689 9.868)" fill="none" stroke="#3e3b44" stroke-linecap="round" stroke-linejoin="round" stroke-width="1.5"/>
        <line id="Line_22" data-name="Line 22" x1="0.477" y2="1.469" transform="translate(25.983 7.76)" fill="none" stroke="#3e3b44" stroke-linecap="round" stroke-linejoin="round" stroke-width="1.5"/>
      </g>
      <path id="Path_9563" data-name="Path 9563" d="M2542.615,687.481a33.143,33.143,0,0,1-25.147-7.091,33.144,33.144,0,0,1-25.148,7.091s-4.842,41.1,25.148,49.96C2547.458,728.578,2542.615,687.481,2542.615,687.481Z" transform="translate(0 0)" fill="none" stroke="#3e3b44" stroke-linecap="round" stroke-miterlimit="10" stroke-width="1.5"/>
      <line id="Line_23" data-name="Line 23" y2="11.453" transform="translate(2517.468 680.39)" fill="none" stroke="#3e3b44" stroke-linecap="round" stroke-miterlimit="10" stroke-width="1.5"/>
      <line id="Line_24" data-name="Line 24" y2="12.026" transform="translate(2517.468 725.326)" fill="none" stroke="#3e3b44" stroke-linecap="round" stroke-miterlimit="10" stroke-width="1.5"/>
    </g>
  </g>
  <g id="Icon05" transform="translate(400 -12)">
    <rect id="Rectangle_1-5" data-name="Rectangle 1" width="100" height="80" transform="translate(0 12)" fill="#eee" opacity="0"/>
    <g id="icon-3" data-name="icon" transform="translate(-544.845 -968.5)">
      <g id="Group_4873" data-name="Group 4873">
        <circle id="Ellipse_8" data-name="Ellipse 8" cx="13.298" cy="13.298" r="13.298" transform="translate(601.526 996.389)" fill="none" stroke="#3e3b44" stroke-linecap="round" stroke-miterlimit="9.998" stroke-width="1.5"/>
        <g id="Path_9571" data-name="Path 9571">
          <path id="Path_10116" data-name="Path 10116" d="M605.858,1014.874A10.352,10.352,0,1,1,620,1018.65,10.363,10.363,0,0,1,605.858,1014.874Z" fill="#5a9fff"/>
          <path id="Path_10117" data-name="Path 10117" d="M623.129,1004.881a9.6,9.6,0,1,0-3.5,13.119,9.613,9.613,0,0,0,3.5-13.119m1.3-.751a11.1,11.1,0,1,1-15.169-4.049A11.1,11.1,0,0,1,624.427,1004.13Z" fill="#3e3b44"/>
        </g>
        <path id="Path_9572" data-name="Path 9572" d="M616.86,1012.471a1.588,1.588,0,0,0-.483-1.166,4.191,4.191,0,0,0-1.6-.859,5.521,5.521,0,0,1-2.315-1.236,2.781,2.781,0,0,1-.78-2.066,2.906,2.906,0,0,1,.719-2.042,3.1,3.1,0,0,1,1.978-.951v-1.678h1.2v1.685a2.9,2.9,0,0,1,1.971,1.039,3.619,3.619,0,0,1,.7,2.337l-1.487,0a2.432,2.432,0,0,0-.479-1.564,1.6,1.6,0,0,0-1.322-.6,1.6,1.6,0,0,0-1.79,1.748,1.6,1.6,0,0,0,.464,1.192,4.541,4.541,0,0,0,1.664.86,5.745,5.745,0,0,1,2.3,1.247,2.734,2.734,0,0,1,.754,2.034,2.785,2.785,0,0,1-.78,2.078,3.48,3.48,0,0,1-2.148.917v1.458h-1.192v-1.45a3.473,3.473,0,0,1-2.142-.951,3.106,3.106,0,0,1-.8-2.4l.01-.031,1.443,0a2.069,2.069,0,0,0,.593,1.667,2.168,2.168,0,0,0,1.443.5,2.294,2.294,0,0,0,1.529-.469A1.6,1.6,0,0,0,616.86,1012.471Z" fill="#3e3b44"/>
      </g>
      <g id="Group_4874" data-name="Group 4874">
        <g id="Path_9573" data-name="Path 9573">
          <path id="Path_10118" data-name="Path 10118" d="M566.185,1037.829a10.351,10.351,0,1,1,14.144,3.776A10.363,10.363,0,0,1,566.185,1037.829Z" fill="#5a9fff"/>
          <path id="Path_10119" data-name="Path 10119" d="M583.455,1027.836a9.6,9.6,0,1,0-3.5,13.12,9.613,9.613,0,0,0,3.5-13.12m1.3-.751a11.1,11.1,0,1,1-15.169-4.049A11.1,11.1,0,0,1,584.754,1027.085Z" fill="#3e3b44"/>
        </g>
        <circle id="Ellipse_9" data-name="Ellipse 9" cx="13.3" cy="13.3" r="13.3" transform="translate(561.845 1019.345)" fill="none" stroke="#3e3b44" stroke-linecap="round" stroke-miterlimit="10" stroke-width="1.5"/>
        <path id="Path_9574" data-name="Path 9574" d="M575.344,1032.388l3.038-5.609,1.894,0-3.528,6.075,2.638,0v1.04l-3.239,0v1.412l3.239,0v1.032l-3.239,0,0,2.757-1.665,0,0-2.757-3.171,0v-1.032l3.171,0v-1.412l-3.171,0v-1.04l2.63,0-3.549-6.067,1.911,0Z" fill="#3e3b44"/>
      </g>
      <path id="Path_10120" data-name="Path 10120" d="M623.028,1026.192a28.522,28.522,0,0,1-39.081,21.085" fill="none" stroke="#3e3b44" stroke-linecap="round" stroke-linejoin="round" stroke-width="1.5" stroke-dasharray="0.2 3"/>
      <path id="Path_10121" data-name="Path 10121" d="M566.813,1016.76a28.523,28.523,0,0,1,38.858-22.2" fill="none" stroke="#3e3b44" stroke-linecap="round" stroke-linejoin="round" stroke-width="1.5" stroke-dasharray="0.2 3"/>
    </g>
  </g>
  <g id="Icon06" transform="translate(500 -12)">
    <rect id="Rectangle_1-6" data-name="Rectangle 1" width="100" height="80" transform="translate(0 12)" fill="#eee" opacity="0"/>
    <g id="icon-4" data-name="icon" transform="translate(-1044.174 -1155.402)">
      <g id="Group_4877" data-name="Group 4877" transform="translate(1054.174 1178.855)">
        <g id="Group_4876" data-name="Group 4876" transform="translate(0 0)">
          <path id="Path_9578" data-name="Path 9578" d="M1100.035,1252.986h10.081a20.137,20.137,0,0,0,.27,5.1,7.079,7.079,0,0,0,3.924,4.741h0c.59.3.314,1.015-.393,1.015h-27.765c-.707,0-.982-.713-.392-1.015h0a7.081,7.081,0,0,0,3.924-4.741,20.131,20.131,0,0,0,.27-5.1Z" transform="translate(-1065.47 -1205.802)" fill="none" stroke="#3e3b44" stroke-linecap="round" stroke-linejoin="round" stroke-width="1.5"/>
          <circle id="Ellipse_10" data-name="Ellipse 10" cx="0.675" cy="0.675" r="0.675" transform="translate(33.891 42.36)" stroke-width="1.5" stroke="#3e3b44" stroke-linecap="round" stroke-linejoin="round" fill="none"/>
          <path id="Path_9579" data-name="Path 9579" d="M1112.014,1248.292h-54.431a3.41,3.41,0,0,1-3.41-3.41v-4.889h13.371" transform="translate(-1054.174 -1201.108)" fill="none" stroke="#3e3b44" stroke-linecap="round" stroke-linejoin="round" stroke-width="1.5"/>
          <path id="Path_9580" data-name="Path 9580" d="M1111.966,1218h-57.792v-35.189a3.7,3.7,0,0,1,3.7-3.7h61.737a3.7,3.7,0,0,1,3.7,3.7v17.165" transform="translate(-1054.174 -1179.112)" fill="none" stroke="#3e3b44" stroke-linecap="round" stroke-linejoin="round" stroke-width="1.5"/>
        </g>
        <line id="Line_25" data-name="Line 25" x1="18.051" transform="translate(60.106 50.621)" fill="none" stroke="#3e3b44" stroke-miterlimit="10" stroke-width="1.5"/>
        <path id="Path_9581" data-name="Path 9581" d="M1165.581,1248.957h-19.117a1.733,1.733,0,0,1-1.733-1.732v-33.717a1.733,1.733,0,0,1,1.733-1.733h19.117a1.733,1.733,0,0,1,1.733,1.733v33.717A1.733,1.733,0,0,1,1165.581,1248.957Z" transform="translate(-1086.891 -1190.913)" fill="none" stroke="#3e3b44" stroke-miterlimit="10" stroke-width="1.5"/>
        <path id="Path_9582" data-name="Path 9582" d="M1162.671,1263.891a.6.6,0,1,0-.6.6A.6.6,0,0,0,1162.671,1263.891Z" transform="translate(-1092.938 -1209.524)" fill="none" stroke="#3e3b44" stroke-miterlimit="10" stroke-width="1.5"/>
        <path id="Path_9583" data-name="Path 9583" d="M1158.906,1217.663h4.476" transform="translate(-1092.013 -1193.04)" fill="none" stroke="#3e3b44" stroke-linecap="round" stroke-linejoin="round" stroke-width="1.5"/>
      </g>
      <circle id="Ellipse_11" data-name="Ellipse 11" cx="10.73" cy="10.73" r="10.73" transform="matrix(0.974, -0.228, 0.228, 0.974, 1075.844, 1190.499)" stroke-width="1.5" stroke="#3e3b44" stroke-linecap="round" stroke-linejoin="round" fill="#5a9fff"/>
      <g id="Group_4879" data-name="Group 4879" transform="translate(1068.643 1178.402)">
        <g id="Group_4878" data-name="Group 4878" transform="translate(0 0)">
          <circle id="Ellipse_12" data-name="Ellipse 12" cx="15.343" cy="15.343" r="15.343" transform="matrix(0.388, -0.922, 0.922, 0.388, 0, 28.277)" stroke-dasharray="0.01 8.078" stroke="#3e3b44" stroke-linecap="round" stroke-linejoin="round" stroke-width="1.5" fill="none"/>
        </g>
      </g>
      <g id="Group_4880" data-name="Group 4880" transform="translate(1088.739 1192.776)">
        <line id="Line_26" data-name="Line 26" y1="5.723" stroke-width="1.5" stroke="#3e3b44" stroke-linecap="round" stroke-linejoin="round" fill="none"/>
        <line id="Line_27" data-name="Line 27" x2="3.962" y2="3.962" transform="translate(0 5.723)" fill="none" stroke="#3e3b44" stroke-linecap="round" stroke-linejoin="round" stroke-width="1.5"/>
      </g>
    </g>
  </g>
</svg>
